<svg width="512" height="512" version="1.1" xmlns="http://www.w3.org/2000/svg" desc="Created with imagetracer.js version 1.2.6" ><path fill="rgb(0,0,0)" stroke="rgb(0,0,0)" stroke-width="1" opacity="0.7058823529411765" d="M 31.5 0 L 34 0.5 L 31.5 1 L 31.5 0 Z " /><path fill="rgb(0,0,0)" stroke="rgb(0,0,0)" stroke-width="1" opacity="0.7058823529411765" d="M 200.5 0 L 204 0.5 L 200.5 1 L 200.5 0 Z " /><path fill="rgb(0,0,0)" stroke="rgb(0,0,0)" stroke-width="1" opacity="0.7058823529411765" d="M 308.5 0 L 312 0.5 L 308.5 1 L 308.5 0 Z " /><path fill="rgb(0,0,0)" stroke="rgb(0,0,0)" stroke-width="1" opacity="0.7058823529411765" d="M 478.5 0 L 481 0.5 L 478.5 1 L 478.5 0 Z " /><path fill="rgb(0,0,0)" stroke="rgb(0,0,0)" stroke-width="1" opacity="0.7058823529411765" d="M 19.5 4 L 18.5 6 L 19.5 4 Z " /><path fill="rgb(0,0,0)" stroke="rgb(0,0,0)" stroke-width="1" opacity="0.7058823529411765" d="M 492.5 4 L 493.5 6 L 492.5 4 Z " /><path fill="rgb(0,0,0)" stroke="rgb(0,0,0)" stroke-width="1" opacity="0.7058823529411765" d="M 16.5 6 L 15.5 8 L 16.5 6 Z " /><path fill="rgb(0,0,0)" stroke="rgb(0,0,0)" stroke-width="1" opacity="0.7058823529411765" d="M 218.5 6 L 220.5 9 L 218.5 6 Z " /><path fill="rgb(0,0,0)" stroke="rgb(0,0,0)" stroke-width="1" opacity="0.7058823529411765" d="M 293.5 6 L 292.5 8 L 293.5 6 Z " /><path fill="rgb(0,0,0)" stroke="rgb(0,0,0)" stroke-width="1" opacity="0.7058823529411765" d="M 495.5 6 L 496.5 8 L 495.5 6 Z " /><path fill="rgb(0,0,0)" stroke="rgb(0,0,0)" stroke-width="1" opacity="0.7058823529411765" d="M 13.5 8 L 8.5 14 L 13.5 8 Z " /><path fill="rgb(0,0,0)" stroke="rgb(0,0,0)" stroke-width="1" opacity="0.7058823529411765" d="M 498.5 8 L 503.5 14 L 498.5 8 Z " /><path fill="rgb(0,0,0)" stroke="rgb(0,0,0)" stroke-width="1" opacity="0.7058823529411765" d="M 226.5 14 L 227.5 16 L 226.5 14 Z " /><path fill="rgb(0,0,0)" stroke="rgb(0,0,0)" stroke-width="1" opacity="0.7058823529411765" d="M 285.5 14 L 284.5 16 L 285.5 14 Z " /><path fill="rgb(0,0,0)" stroke="rgb(0,0,0)" stroke-width="1" opacity="0.7058823529411765" d="M 7.5 15 L 6.5 17 L 7.5 15 Z " /><path fill="rgb(0,0,0)" stroke="rgb(0,0,0)" stroke-width="1" opacity="0.7058823529411765" d="M 5.5 18 L 4.5 20 L 5.5 18 Z " /><path fill="rgb(0,0,0)" stroke="rgb(0,0,0)" stroke-width="1" opacity="0.7058823529411765" d="M 506.5 18 L 507.5 20 L 506.5 18 Z " /><path fill="rgb(0,0,0)" stroke="rgb(0,0,0)" stroke-width="1" opacity="0.7058823529411765" d="M 0.5 30 L 1 33.5 L 0 33.5 L 0.5 30 Z " /><path fill="rgb(0,0,0)" stroke="rgb(0,0,0)" stroke-width="1" opacity="0.7058823529411765" d="M 511.5 31 L 512 33.5 L 511 33.5 L 511.5 31 Z " /><path fill="rgb(0,0,0)" stroke="rgb(0,0,0)" stroke-width="1" opacity="0.7058823529411765" d="M 234.5 33 L 235 137.5 L 234 137.5 L 234.5 33 Z " /><path fill="rgb(0,0,0)" stroke="rgb(0,0,0)" stroke-width="1" opacity="0.7058823529411765" d="M 277.5 33 L 278 265.5 L 277 265.5 L 277.5 33 Z " /><path fill="rgb(0,0,0)" stroke="rgb(0,0,0)" stroke-width="1" opacity="0.7058823529411765" d="M 0.5 136 L 1 139.5 L 0 139.5 L 0.5 136 Z " /><path fill="rgb(0,0,0)" stroke="rgb(0,0,0)" stroke-width="1" opacity="0.7058823529411765" d="M 6.5 154 L 8.5 157 L 6.5 154 Z " /><path fill="rgb(0,0,0)" stroke="rgb(0,0,0)" stroke-width="1" opacity="0.7058823529411765" d="M 226.5 156 L 220.5 163 L 226.5 156 Z " /><path fill="rgb(0,0,0)" stroke="rgb(0,0,0)" stroke-width="1" opacity="0.7058823529411765" d="M 14.5 162 L 15.5 164 L 14.5 162 Z " /><path fill="rgb(0,0,0)" stroke="rgb(0,0,0)" stroke-width="1" opacity="0.7058823529411765" d="M 33.5 170 L 202 170.5 L 33.5 171 L 33.5 170 Z " /><path fill="rgb(0,0,0)" stroke="rgb(0,0,0)" stroke-width="1" opacity="0.7058823529411765" d="M 33.5 213 L 202 213.5 L 33.5 214 L 33.5 213 Z " /><path fill="rgb(0,0,0)" stroke="rgb(0,0,0)" stroke-width="1" opacity="0.7058823529411765" d="M 216.5 218 L 217.5 220 L 216.5 218 Z " /><path fill="rgb(0,0,0)" stroke="rgb(0,0,0)" stroke-width="1" opacity="0.7058823529411765" d="M 15.5 220 L 14.5 222 L 15.5 220 Z " /><path fill="rgb(0,0,0)" stroke="rgb(0,0,0)" stroke-width="1" opacity="0.7058823529411765" d="M 220.5 221 L 226.5 228 L 220.5 221 Z " /><path fill="rgb(0,0,0)" stroke="rgb(0,0,0)" stroke-width="1" opacity="0.7058823529411765" d="M 8.5 227 L 6.5 230 L 8.5 227 Z " /><path fill="rgb(0,0,0)" stroke="rgb(0,0,0)" stroke-width="1" opacity="0.7058823529411765" d="M 0.5 244 L 1 247.5 L 0 247.5 L 0.5 244 Z " /><path fill="rgb(0,0,0)" stroke="rgb(0,0,0)" stroke-width="1" opacity="0.7058823529411765" d="M 234.5 246 L 235 478.5 L 234 478.5 L 234.5 246 Z " /><path fill="rgb(0,0,0)" stroke="rgb(0,0,0)" stroke-width="1" opacity="0.7058823529411765" d="M 511.5 264 L 512 267.5 L 511 267.5 L 511.5 264 Z " /><path fill="rgb(0,0,0)" stroke="rgb(0,0,0)" stroke-width="1" opacity="0.7058823529411765" d="M 505.5 282 L 503.5 285 L 505.5 282 Z " /><path fill="rgb(0,0,0)" stroke="rgb(0,0,0)" stroke-width="1" opacity="0.7058823529411765" d="M 285.5 284 L 291.5 291 L 285.5 284 Z " /><path fill="rgb(0,0,0)" stroke="rgb(0,0,0)" stroke-width="1" opacity="0.7058823529411765" d="M 497.5 290 L 496.5 292 L 497.5 290 Z " /><path fill="rgb(0,0,0)" stroke="rgb(0,0,0)" stroke-width="1" opacity="0.7058823529411765" d="M 310.5 298 L 479 298.5 L 310.5 299 L 310.5 298 Z " /><path fill="rgb(0,0,0)" stroke="rgb(0,0,0)" stroke-width="1" opacity="0.7058823529411765" d="M 310.5 341 L 479 341.5 L 310.5 342 L 310.5 341 Z " /><path fill="rgb(0,0,0)" stroke="rgb(0,0,0)" stroke-width="1" opacity="0.7058823529411765" d="M 496.5 348 L 497.5 350 L 496.5 348 Z " /><path fill="rgb(0,0,0)" stroke="rgb(0,0,0)" stroke-width="1" opacity="0.7058823529411765" d="M 291.5 349 L 285.5 356 L 291.5 349 Z " /><path fill="rgb(0,0,0)" stroke="rgb(0,0,0)" stroke-width="1" opacity="0.7058823529411765" d="M 504.5 356 L 505.5 358 L 504.5 356 Z " /><path fill="rgb(0,0,0)" stroke="rgb(0,0,0)" stroke-width="1" opacity="0.7058823529411765" d="M 511.5 372 L 512 375.5 L 511 375.5 L 511.5 372 Z " /><path fill="rgb(0,0,0)" stroke="rgb(0,0,0)" stroke-width="1" opacity="0.7058823529411765" d="M 277.5 374 L 278 478.5 L 277 478.5 L 277.5 374 Z " /><path fill="rgb(0,0,0)" stroke="rgb(0,0,0)" stroke-width="1" opacity="0.7058823529411765" d="M 0.5 478 L 1 481.5 L 0 481.5 L 0.5 478 Z " /><path fill="rgb(0,0,0)" stroke="rgb(0,0,0)" stroke-width="1" opacity="0.7058823529411765" d="M 511.5 478 L 512 480.5 L 511 480.5 L 511.5 478 Z " /><path fill="rgb(0,0,0)" stroke="rgb(0,0,0)" stroke-width="1" opacity="0.7058823529411765" d="M 4.5 492 L 5.5 494 L 4.5 492 Z " /><path fill="rgb(0,0,0)" stroke="rgb(0,0,0)" stroke-width="1" opacity="0.7058823529411765" d="M 507.5 492 L 506.5 494 L 507.5 492 Z " /><path fill="rgb(0,0,0)" stroke="rgb(0,0,0)" stroke-width="1" opacity="0.7058823529411765" d="M 6.5 495 L 7.5 497 L 6.5 495 Z " /><path fill="rgb(0,0,0)" stroke="rgb(0,0,0)" stroke-width="1" opacity="0.7058823529411765" d="M 505.5 495 L 504.5 497 L 505.5 495 Z " /><path fill="rgb(0,0,0)" stroke="rgb(0,0,0)" stroke-width="1" opacity="0.7058823529411765" d="M 227.5 496 L 226.5 498 L 227.5 496 Z " /><path fill="rgb(0,0,0)" stroke="rgb(0,0,0)" stroke-width="1" opacity="0.7058823529411765" d="M 284.5 496 L 285.5 498 L 284.5 496 Z " /><path fill="rgb(0,0,0)" stroke="rgb(0,0,0)" stroke-width="1" opacity="0.7058823529411765" d="M 8.5 498 L 13.5 504 L 8.5 498 Z " /><path fill="rgb(0,0,0)" stroke="rgb(0,0,0)" stroke-width="1" opacity="0.7058823529411765" d="M 503.5 498 L 498.5 504 L 503.5 498 Z " /><path fill="rgb(0,0,0)" stroke="rgb(0,0,0)" stroke-width="1" opacity="0.7058823529411765" d="M 220.5 503 L 218.5 506 L 220.5 503 Z " /><path fill="rgb(0,0,0)" stroke="rgb(0,0,0)" stroke-width="1" opacity="0.7058823529411765" d="M 291.5 503 L 293.5 506 L 291.5 503 Z " /><path fill="rgb(0,0,0)" stroke="rgb(0,0,0)" stroke-width="1" opacity="0.7058823529411765" d="M 15.5 504 L 16.5 506 L 15.5 504 Z " /><path fill="rgb(0,0,0)" stroke="rgb(0,0,0)" stroke-width="1" opacity="0.7058823529411765" d="M 496.5 504 L 495.5 506 L 496.5 504 Z " /><path fill="rgb(0,0,0)" stroke="rgb(0,0,0)" stroke-width="1" opacity="0.7058823529411765" d="M 18.5 506 L 19.5 508 L 18.5 506 Z " /><path fill="rgb(0,0,0)" stroke="rgb(0,0,0)" stroke-width="1" opacity="0.7058823529411765" d="M 493.5 506 L 492.5 508 L 493.5 506 Z " /><path fill="rgb(0,0,0)" stroke="rgb(0,0,0)" stroke-width="1" opacity="0.7058823529411765" d="M 31.5 511 L 34 511.5 L 31.5 512 L 31.5 511 Z " /><path fill="rgb(0,0,0)" stroke="rgb(0,0,0)" stroke-width="1" opacity="0.7058823529411765" d="M 200.5 511 L 204 511.5 L 200.5 512 L 200.5 511 Z " /><path fill="rgb(0,0,0)" stroke="rgb(0,0,0)" stroke-width="1" opacity="0.7058823529411765" d="M 308.5 511 L 312 511.5 L 308.5 512 L 308.5 511 Z " /><path fill="rgb(0,0,0)" stroke="rgb(0,0,0)" stroke-width="1" opacity="0.7058823529411765" d="M 478.5 511 L 481 511.5 L 478.5 512 L 478.5 511 Z " /><path fill="rgb(0,0,0)" stroke="rgb(0,0,0)" stroke-width="1" opacity="1" d="M 34.5 0 L 199.5 0 L 209.5 2 L 217.5 6 L 226 13.5 Q 231.9 20.1 234 30.5 L 234 140.5 Q 230.4 156.4 218.5 164 L 204.5 170 L 30.5 170 Q 16.5 167 9 157.5 L 2 145.5 L 0 135.5 L 0 34.5 L 4 20.5 L 14.5 8 L 22.5 3 L 34.5 0 Z " /><path fill="rgb(0,0,0)" stroke="rgb(0,0,0)" stroke-width="1" opacity="1" d="M 312.5 0 L 477.5 0 L 491.5 4 L 505 15.5 L 509 22.5 L 512 34.5 L 512 263.5 L 510 273.5 L 506 281.5 L 498.5 290 Q 491.9 295.9 481.5 298 L 307.5 298 Q 291.6 294.4 284 282.5 L 278 268.5 L 278 30.5 Q 281.3 15.8 291.5 8 L 302.5 2 L 312.5 0 Z " /><path fill="rgb(0,0,0)" stroke="rgb(0,0,0)" stroke-width="1" opacity="1" d="M 30.5 214 L 204.5 214 Q 220.4 217.6 228 229.5 L 234 243.5 L 234 481.5 Q 231 495.5 221.5 503 L 209.5 510 L 199.5 512 L 34.5 512 L 20.5 508 L 8 497.5 L 3 489.5 L 0 477.5 L 0 248.5 L 2 238.5 L 6 230.5 L 13.5 222 Q 20.1 216.1 30.5 214 Z " /><path fill="rgb(0,0,0)" stroke="rgb(0,0,0)" stroke-width="1" opacity="1" d="M 307.5 342 L 481.5 342 Q 496.3 345.3 504 355.5 L 510 366.5 L 512 376.5 L 512 477.5 L 508 491.5 L 497.5 504 L 489.5 509 L 477.5 512 L 312.5 512 L 302.5 510 L 294.5 506 L 286 498.5 Q 280.1 491.9 278 481.5 L 278 371.5 Q 281.6 355.6 293.5 348 L 307.5 342 Z " /><path fill="rgb(0,0,0)" stroke="rgb(0,0,0)" stroke-width="1" opacity="0" d="M 0 0 L 31 0.5 Q 15.6 3.1 8 13.5 Q 2.4 19.9 0.5 30 L 0 0 Z " /><path fill="rgb(0,0,0)" stroke="rgb(0,0,0)" stroke-width="1" opacity="0" d="M 204.5 0 L 308 0.5 Q 291.6 3.6 284 15.5 L 279 24.5 L 277 33.5 L 277 265.5 Q 279.8 282.7 291.5 291 L 299.5 296 L 310.5 299 L 478.5 299 Q 497.3 295.8 506 282.5 L 511.5 268 L 512 371.5 L 511 371.5 Q 508.3 355.3 496.5 348 L 487.5 343 L 478.5 341 L 310.5 341 Q 293.3 343.8 285 355.5 L 280 363.5 L 277 374.5 L 277 478.5 Q 280.2 497.3 293.5 506 L 308 511.5 L 204.5 512 L 204.5 511 Q 220.8 508.3 228 496.5 L 232 489.5 L 235 478.5 L 235 246.5 Q 232.2 229.3 220.5 221 L 212.5 216 L 201.5 213 L 33.5 213 Q 14.7 216.2 6 229.5 L 0.5 244 L 0 140.5 L 1 140.5 Q 3.8 156.8 15.5 164 L 22.5 168 L 33.5 171 L 201.5 171 Q 218.7 168.2 227 156.5 L 232 148.5 L 235 137.5 L 235 33.5 Q 231.8 14.7 218.5 6 Q 213.3 1.7 204.5 1 L 204.5 0 Z " /><path fill="rgb(0,0,0)" stroke="rgb(0,0,0)" stroke-width="1" opacity="0" d="M 481.5 0 L 512 0 L 512 30.5 L 511 30.5 Q 508.9 15.1 498.5 8 Q 492.4 2.1 481.5 1 L 481.5 0 Z " /><path fill="rgb(0,0,0)" stroke="rgb(0,0,0)" stroke-width="1" opacity="0" d="M 511.5 481 L 512 512 L 481 511.5 Q 496.4 508.9 504 498.5 Q 510 492 511.5 481 Z " /><path fill="rgb(0,0,0)" stroke="rgb(0,0,0)" stroke-width="1" opacity="0" d="M 0.5 482 Q 3.5 496.5 13.5 504 Q 20 510 31 511.5 L 0 512 L 0.5 482 Z " /></svg>