<svg width="512" height="512" version="1.1" xmlns="http://www.w3.org/2000/svg" desc="Created with imagetracer.js version 1.2.6" ><path fill="rgb(253,248,251)" stroke="rgb(253,248,251)" stroke-width="1" opacity="1" d="M 252.5 114 Q 260.2 112.8 263.5 116 L 404 230.5 Q 406.3 233.7 405 240.5 L 402 246 L 394.5 249 L 363 249 L 363 385.5 L 361 392.5 L 356.5 397 L 354.5 398 L 287.5 398 L 282 395 L 279 388.5 L 279 293 L 233 293 L 233 388.5 L 228.5 396 L 224.5 398 L 157.5 398 L 151 392.5 L 149 386.5 L 149 249 L 117.5 249 L 109 244.5 Q 105.7 240.8 107 232.5 L 114.5 224 L 252.5 114 Z M 255 142 L 153 225 L 166 225 L 168 226 L 173 233 L 173 374 L 174 374 L 209 374 L 209 278 L 212 272 L 218 269 L 295 269 L 299 271 L 303 278 L 303 374 L 339 374 L 339 233 L 340 231 L 347 225 L 359 225 L 258 142 L 255 142 Z " /><path fill="rgb(254,63,92)" stroke="rgb(254,63,92)" stroke-width="1" opacity="0.9921568627450981" d="M 242.5 0 L 254 0.5 L 242.5 1 L 242.5 0 Z " /><path fill="rgb(254,63,92)" stroke="rgb(254,63,92)" stroke-width="1" opacity="0.9921568627450981" d="M 258.5 0 L 270 0.5 L 258.5 1 L 258.5 0 Z " /><path fill="rgb(254,63,92)" stroke="rgb(254,63,92)" stroke-width="1" opacity="0.9921568627450981" d="M 230.5 1 L 234 1.5 L 230.5 2 L 230.5 1 Z " /><path fill="rgb(254,63,92)" stroke="rgb(254,63,92)" stroke-width="1" opacity="0.9921568627450981" d="M 278.5 1 L 282 1.5 L 278.5 2 L 278.5 1 Z " /><path fill="rgb(254,63,92)" stroke="rgb(254,63,92)" stroke-width="1" opacity="0.9921568627450981" d="M 221.5 2 L 224 2.5 L 221.5 3 L 221.5 2 Z " /><path fill="rgb(254,63,92)" stroke="rgb(254,63,92)" stroke-width="1" opacity="0.9921568627450981" d="M 288.5 2 L 291 2.5 L 288.5 3 L 288.5 2 Z " /><path fill="rgb(254,63,92)" stroke="rgb(254,63,92)" stroke-width="1" opacity="0.9921568627450981" d="M 295.5 3 L 298 3.5 L 295.5 4 L 295.5 3 Z " /><path fill="rgb(254,63,92)" stroke="rgb(254,63,92)" stroke-width="1" opacity="0.9921568627450981" d="M 133.5 31 L 132.5 33 L 133.5 31 Z " /><path fill="rgb(254,63,92)" stroke="rgb(254,63,92)" stroke-width="1" opacity="0.9921568627450981" d="M 378.5 31 L 379.5 33 L 378.5 31 Z " /><path fill="rgb(254,63,92)" stroke="rgb(254,63,92)" stroke-width="1" opacity="0.9921568627450981" d="M 126.5 35 L 125.5 37 L 126.5 35 Z " /><path fill="rgb(254,63,92)" stroke="rgb(254,63,92)" stroke-width="1" opacity="0.9921568627450981" d="M 385.5 35 L 386.5 37 L 385.5 35 Z " /><path fill="rgb(254,63,92)" stroke="rgb(254,63,92)" stroke-width="1" opacity="0.9921568627450981" d="M 121.5 38 L 120.5 40 L 121.5 38 Z " /><path fill="rgb(254,63,92)" stroke="rgb(254,63,92)" stroke-width="1" opacity="0.9921568627450981" d="M 390.5 38 L 391.5 40 L 390.5 38 Z " /><path fill="rgb(254,63,92)" stroke="rgb(254,63,92)" stroke-width="1" opacity="0.9921568627450981" d="M 118.5 40 L 117.5 42 L 118.5 40 Z " /><path fill="rgb(254,63,92)" stroke="rgb(254,63,92)" stroke-width="1" opacity="0.9921568627450981" d="M 393.5 40 L 394.5 42 L 393.5 40 Z " /><path fill="rgb(254,63,92)" stroke="rgb(254,63,92)" stroke-width="1" opacity="0.9921568627450981" d="M 115.5 42 L 114.5 44 L 115.5 42 Z " /><path fill="rgb(254,63,92)" stroke="rgb(254,63,92)" stroke-width="1" opacity="0.9921568627450981" d="M 396.5 42 L 397.5 44 L 396.5 42 Z " /><path fill="rgb(254,63,92)" stroke="rgb(254,63,92)" stroke-width="1" opacity="0.9921568627450981" d="M 112.5 44 L 111.5 46 L 112.5 44 Z " /><path fill="rgb(254,63,92)" stroke="rgb(254,63,92)" stroke-width="1" opacity="0.9921568627450981" d="M 399.5 44 L 400.5 46 L 399.5 44 Z " /><path fill="rgb(254,63,92)" stroke="rgb(254,63,92)" stroke-width="1" opacity="0.9921568627450981" d="M 109.5 46 L 108.5 48 L 109.5 46 Z " /><path fill="rgb(254,63,92)" stroke="rgb(254,63,92)" stroke-width="1" opacity="0.9921568627450981" d="M 402.5 46 L 403.5 48 L 402.5 46 Z " /><path fill="rgb(254,63,92)" stroke="rgb(254,63,92)" stroke-width="1" opacity="0.9921568627450981" d="M 105.5 49 L 104.5 51 L 105.5 49 Z " /><path fill="rgb(254,63,92)" stroke="rgb(254,63,92)" stroke-width="1" opacity="0.9921568627450981" d="M 406.5 49 L 407.5 51 L 406.5 49 Z " /><path fill="rgb(254,63,92)" stroke="rgb(254,63,92)" stroke-width="1" opacity="0.9921568627450981" d="M 102.5 51 L 100.5 54 L 102.5 51 Z " /><path fill="rgb(254,63,92)" stroke="rgb(254,63,92)" stroke-width="1" opacity="0.9921568627450981" d="M 409.5 51 L 411.5 54 L 409.5 51 Z " /><path fill="rgb(254,63,92)" stroke="rgb(254,63,92)" stroke-width="1" opacity="0.9921568627450981" d="M 97.5 55 L 95.5 58 L 97.5 55 Z " /><path fill="rgb(254,63,92)" stroke="rgb(254,63,92)" stroke-width="1" opacity="0.9921568627450981" d="M 414.5 55 L 416.5 58 L 414.5 55 Z " /><path fill="rgb(254,63,92)" stroke="rgb(254,63,92)" stroke-width="1" opacity="0.9921568627450981" d="M 93.5 58 L 88.5 64 L 93.5 58 Z " /><path fill="rgb(254,63,92)" stroke="rgb(254,63,92)" stroke-width="1" opacity="0.9921568627450981" d="M 418.5 58 L 422.5 63 L 418.5 58 Z " /><path fill="rgb(254,63,92)" stroke="rgb(254,63,92)" stroke-width="1" opacity="0.9921568627450981" d="M 85.5 65 L 65.5 86 L 85.5 65 Z " /><path fill="rgb(254,63,92)" stroke="rgb(254,63,92)" stroke-width="1" opacity="0.9921568627450981" d="M 426.5 65 L 447.5 87 L 426.5 65 Z " /><path fill="rgb(254,63,92)" stroke="rgb(254,63,92)" stroke-width="1" opacity="0.9921568627450981" d="M 62.5 89 L 58.5 94 L 62.5 89 Z " /><path fill="rgb(254,63,92)" stroke="rgb(254,63,92)" stroke-width="1" opacity="0.9921568627450981" d="M 449.5 89 L 453.5 94 L 449.5 89 Z " /><path fill="rgb(254,63,92)" stroke="rgb(254,63,92)" stroke-width="1" opacity="0.9921568627450981" d="M 57.5 95 L 55.5 98 L 57.5 95 Z " /><path fill="rgb(254,63,92)" stroke="rgb(254,63,92)" stroke-width="1" opacity="0.9921568627450981" d="M 454.5 95 L 456.5 98 L 454.5 95 Z " /><path fill="rgb(254,63,92)" stroke="rgb(254,63,92)" stroke-width="1" opacity="0.9921568627450981" d="M 53.5 100 L 51.5 103 L 53.5 100 Z " /><path fill="rgb(254,63,92)" stroke="rgb(254,63,92)" stroke-width="1" opacity="0.9921568627450981" d="M 458.5 100 L 460.5 103 L 458.5 100 Z " /><path fill="rgb(254,63,92)" stroke="rgb(254,63,92)" stroke-width="1" opacity="0.9921568627450981" d="M 50.5 104 L 49.5 106 L 50.5 104 Z " /><path fill="rgb(254,63,92)" stroke="rgb(254,63,92)" stroke-width="1" opacity="0.9921568627450981" d="M 461.5 104 L 462.5 106 L 461.5 104 Z " /><path fill="rgb(254,63,92)" stroke="rgb(254,63,92)" stroke-width="1" opacity="0.9921568627450981" d="M 47.5 108 L 46.5 110 L 47.5 108 Z " /><path fill="rgb(254,63,92)" stroke="rgb(254,63,92)" stroke-width="1" opacity="0.9921568627450981" d="M 464.5 108 L 465.5 110 L 464.5 108 Z " /><path fill="rgb(254,63,92)" stroke="rgb(254,63,92)" stroke-width="1" opacity="0.9921568627450981" d="M 45.5 111 L 44.5 113 L 45.5 111 Z " /><path fill="rgb(254,63,92)" stroke="rgb(254,63,92)" stroke-width="1" opacity="0.9921568627450981" d="M 466.5 111 L 467.5 113 L 466.5 111 Z " /><path fill="rgb(254,63,92)" stroke="rgb(254,63,92)" stroke-width="1" opacity="0.9921568627450981" d="M 43.5 114 L 42.5 116 L 43.5 114 Z " /><path fill="rgb(254,63,92)" stroke="rgb(254,63,92)" stroke-width="1" opacity="0.9921568627450981" d="M 468.5 114 L 469.5 116 L 468.5 114 Z " /><path fill="rgb(254,63,92)" stroke="rgb(254,63,92)" stroke-width="1" opacity="0.9921568627450981" d="M 41.5 117 L 40.5 119 L 41.5 117 Z " /><path fill="rgb(254,63,92)" stroke="rgb(254,63,92)" stroke-width="1" opacity="0.9921568627450981" d="M 470.5 117 L 471.5 119 L 470.5 117 Z " /><path fill="rgb(254,63,92)" stroke="rgb(254,63,92)" stroke-width="1" opacity="0.9921568627450981" d="M 39.5 120 L 38.5 122 L 39.5 120 Z " /><path fill="rgb(254,63,92)" stroke="rgb(254,63,92)" stroke-width="1" opacity="0.9921568627450981" d="M 472.5 120 L 473.5 122 L 472.5 120 Z " /><path fill="rgb(254,63,92)" stroke="rgb(254,63,92)" stroke-width="1" opacity="0.9921568627450981" d="M 36.5 125 L 35.5 127 L 36.5 125 Z " /><path fill="rgb(254,63,92)" stroke="rgb(254,63,92)" stroke-width="1" opacity="0.9921568627450981" d="M 475.5 125 L 476.5 127 L 475.5 125 Z " /><path fill="rgb(254,63,92)" stroke="rgb(254,63,92)" stroke-width="1" opacity="0.9921568627450981" d="M 32.5 132 L 31.5 134 L 32.5 132 Z " /><path fill="rgb(254,63,92)" stroke="rgb(254,63,92)" stroke-width="1" opacity="0.9921568627450981" d="M 479.5 132 L 480.5 134 L 479.5 132 Z " /><path fill="rgb(254,63,92)" stroke="rgb(254,63,92)" stroke-width="1" opacity="0.9921568627450981" d="M 2.5 221 L 3 223.5 L 2 223.5 L 2.5 221 Z " /><path fill="rgb(254,63,92)" stroke="rgb(254,63,92)" stroke-width="1" opacity="0.9921568627450981" d="M 509.5 221 L 510 223.5 L 509 223.5 L 509.5 221 Z " /><path fill="rgb(254,63,92)" stroke="rgb(254,63,92)" stroke-width="1" opacity="0.9921568627450981" d="M 1.5 229 L 2 233.5 L 1 233.5 L 1.5 229 Z " /><path fill="rgb(254,63,92)" stroke="rgb(254,63,92)" stroke-width="1" opacity="0.9921568627450981" d="M 404.5 230 L 501.5 328 L 404.5 230 Z " /><path fill="rgb(254,63,92)" stroke="rgb(254,63,92)" stroke-width="1" opacity="0.9921568627450981" d="M 510.5 230 L 511 233.5 L 510 233.5 L 510.5 230 Z " /><path fill="rgb(254,63,92)" stroke="rgb(254,63,92)" stroke-width="1" opacity="0.9921568627450981" d="M 0.5 242 L 1 254.5 L 0 254.5 L 0.5 242 Z " /><path fill="rgb(254,63,92)" stroke="rgb(254,63,92)" stroke-width="1" opacity="0.9921568627450981" d="M 511.5 242 L 512 269.5 L 511 269.5 L 511.5 242 Z " /><path fill="rgb(254,63,92)" stroke="rgb(254,63,92)" stroke-width="1" opacity="0.9921568627450981" d="M 0.5 257 L 1 269.5 L 0 269.5 L 0.5 257 Z " /><path fill="rgb(254,63,92)" stroke="rgb(254,63,92)" stroke-width="1" opacity="0.9921568627450981" d="M 1.5 278 L 2 282.5 L 1 282.5 L 1.5 278 Z " /><path fill="rgb(254,63,92)" stroke="rgb(254,63,92)" stroke-width="1" opacity="0.9921568627450981" d="M 510.5 278 L 511 281.5 L 510 281.5 L 510.5 278 Z " /><path fill="rgb(254,63,92)" stroke="rgb(254,63,92)" stroke-width="1" opacity="0.9921568627450981" d="M 2.5 288 L 3 290.5 L 2 290.5 L 2.5 288 Z " /><path fill="rgb(254,63,92)" stroke="rgb(254,63,92)" stroke-width="1" opacity="0.9921568627450981" d="M 509.5 288 L 510 290.5 L 509 290.5 L 509.5 288 Z " /><path fill="rgb(254,63,92)" stroke="rgb(254,63,92)" stroke-width="1" opacity="0.9921568627450981" d="M 31.5 378 L 32.5 380 L 31.5 378 Z " /><path fill="rgb(254,63,92)" stroke="rgb(254,63,92)" stroke-width="1" opacity="0.9921568627450981" d="M 35.5 385 L 36.5 387 L 35.5 385 Z " /><path fill="rgb(254,63,92)" stroke="rgb(254,63,92)" stroke-width="1" opacity="0.9921568627450981" d="M 38.5 390 L 39.5 392 L 38.5 390 Z " /><path fill="rgb(254,63,92)" stroke="rgb(254,63,92)" stroke-width="1" opacity="0.9921568627450981" d="M 40.5 393 L 41.5 395 L 40.5 393 Z " /><path fill="rgb(254,63,92)" stroke="rgb(254,63,92)" stroke-width="1" opacity="0.9921568627450981" d="M 42.5 396 L 43.5 398 L 42.5 396 Z " /><path fill="rgb(254,63,92)" stroke="rgb(254,63,92)" stroke-width="1" opacity="0.9921568627450981" d="M 155.5 397 L 269 510.5 L 269 512 L 259 511.5 L 268 510.5 L 155.5 397 Z " /><path fill="rgb(254,63,92)" stroke="rgb(254,63,92)" stroke-width="1" opacity="0.9921568627450981" d="M 44.5 399 L 45.5 401 L 44.5 399 Z " /><path fill="rgb(254,63,92)" stroke="rgb(254,63,92)" stroke-width="1" opacity="0.9921568627450981" d="M 46.5 402 L 47.5 404 L 46.5 402 Z " /><path fill="rgb(254,63,92)" stroke="rgb(254,63,92)" stroke-width="1" opacity="0.9921568627450981" d="M 49.5 406 L 50.5 408 L 49.5 406 Z " /><path fill="rgb(254,63,92)" stroke="rgb(254,63,92)" stroke-width="1" opacity="0.9921568627450981" d="M 51.5 409 L 53.5 412 L 51.5 409 Z " /><path fill="rgb(254,63,92)" stroke="rgb(254,63,92)" stroke-width="1" opacity="0.9921568627450981" d="M 55.5 414 L 57.5 417 L 55.5 414 Z " /><path fill="rgb(254,63,92)" stroke="rgb(254,63,92)" stroke-width="1" opacity="0.9921568627450981" d="M 58.5 418 L 62.5 423 L 58.5 418 Z " /><path fill="rgb(254,63,92)" stroke="rgb(254,63,92)" stroke-width="1" opacity="0.9921568627450981" d="M 65.5 426 L 85.5 447 L 65.5 426 Z " /><path fill="rgb(254,63,92)" stroke="rgb(254,63,92)" stroke-width="1" opacity="0.9921568627450981" d="M 89.5 449 L 93.5 454 L 89.5 449 Z " /><path fill="rgb(254,63,92)" stroke="rgb(254,63,92)" stroke-width="1" opacity="0.9921568627450981" d="M 95.5 454 L 97.5 457 L 95.5 454 Z " /><path fill="rgb(254,63,92)" stroke="rgb(254,63,92)" stroke-width="1" opacity="0.9921568627450981" d="M 100.5 458 L 102.5 461 L 100.5 458 Z " /><path fill="rgb(254,63,92)" stroke="rgb(254,63,92)" stroke-width="1" opacity="0.9921568627450981" d="M 104.5 461 L 105.5 463 L 104.5 461 Z " /><path fill="rgb(254,63,92)" stroke="rgb(254,63,92)" stroke-width="1" opacity="0.9921568627450981" d="M 108.5 464 L 109.5 466 L 108.5 464 Z " /><path fill="rgb(254,63,92)" stroke="rgb(254,63,92)" stroke-width="1" opacity="0.9921568627450981" d="M 111.5 466 L 112.5 468 L 111.5 466 Z " /><path fill="rgb(254,63,92)" stroke="rgb(254,63,92)" stroke-width="1" opacity="0.9921568627450981" d="M 114.5 468 L 115.5 470 L 114.5 468 Z " /><path fill="rgb(254,63,92)" stroke="rgb(254,63,92)" stroke-width="1" opacity="0.9921568627450981" d="M 117.5 470 L 118.5 472 L 117.5 470 Z " /><path fill="rgb(254,63,92)" stroke="rgb(254,63,92)" stroke-width="1" opacity="0.9921568627450981" d="M 120.5 472 L 121.5 474 L 120.5 472 Z " /><path fill="rgb(254,63,92)" stroke="rgb(254,63,92)" stroke-width="1" opacity="0.9921568627450981" d="M 125.5 475 L 126.5 477 L 125.5 475 Z " /><path fill="rgb(254,63,92)" stroke="rgb(254,63,92)" stroke-width="1" opacity="0.9921568627450981" d="M 132.5 479 L 133.5 481 L 132.5 479 Z " /><path fill="rgb(254,63,92)" stroke="rgb(254,63,92)" stroke-width="1" opacity="0.9921568627450981" d="M 221.5 509 L 224 509.5 L 221.5 510 L 221.5 509 Z " /><path fill="rgb(254,63,92)" stroke="rgb(254,63,92)" stroke-width="1" opacity="0.9921568627450981" d="M 230.5 510 L 233 510.5 L 230.5 511 L 230.5 510 Z " /><path fill="rgb(254,63,92)" stroke="rgb(254,63,92)" stroke-width="1" opacity="0.9921568627450981" d="M 242.5 511 L 253 511.5 L 242.5 512 L 242.5 511 Z " /><path fill="rgb(0,0,0)" stroke="rgb(0,0,0)" stroke-width="1" opacity="0" d="M 0 0 L 233 0.5 L 205.5 4 L 188.5 8 Q 161.9 15.4 139.5 27 Q 95.3 49.8 64 85.5 Q 36.5 116 19 156.5 L 6 196.5 L 3 210.5 L 0.5 233 L 0 0 Z " /><path fill="rgb(0,0,0)" stroke="rgb(0,0,0)" stroke-width="1" opacity="0" d="M 279.5 0 L 512 0 L 512 232.5 L 511 232.5 L 510 217.5 L 504 188.5 Q 496.3 160.7 484 137.5 Q 461.4 94.6 426.5 64 Q 396 36.5 355.5 19 L 323.5 8 L 301.5 3 L 279.5 1 L 279.5 0 Z " /><path fill="rgb(0,0,0)" stroke="rgb(0,0,0)" stroke-width="1" opacity="0" d="M 0.5 279 L 3 301.5 L 8 323.5 Q 15.4 350.1 27 372.5 Q 49.8 416.7 85.5 448 Q 116.1 475.4 156.5 493 L 196.5 506 L 217.5 510 L 233 511.5 L 0 512 L 0.5 279 Z " /><path fill="rgb(0,0,0)" stroke="rgb(0,0,0)" stroke-width="1" opacity="0" d="M 511.5 279 L 512 512 L 279 511.5 L 301.5 509 L 330.5 502 Q 355.4 494.4 376.5 483 Q 418.7 460.2 449 425.5 Q 475.8 395.3 493 355.5 L 506 315.5 L 510 294.5 L 511.5 279 Z " /><path fill="rgb(255,64,92)" stroke="rgb(255,64,92)" stroke-width="1" opacity="1" d="M 254.5 0 L 258.5 1 L 287.5 2 L 310.5 6 L 326.5 10 L 361.5 23 Q 413.6 47.4 449 88.5 Q 484.4 128.1 502 185.5 L 508 211.5 L 509 223.5 L 510 224.5 L 510 233.5 L 511 234.5 L 511 277.5 L 510 278.5 L 510 287.5 L 509 288.5 L 508 300.5 L 501.5 327 L 405.5 231 L 404 231.5 L 404.5 230 L 263.5 116 Q 260.2 112.8 252.5 114 L 233.5 128 L 108 230.5 Q 105.7 233.7 107 240.5 L 110.5 246 Q 112.8 245.3 112 247.5 L 114 247.5 L 113 248.5 L 149 284.5 L 149 386.5 L 151 392.5 L 268 510.5 L 253.5 512 L 252.5 511 L 224.5 510 L 201.5 506 L 185.5 502 L 150.5 489 Q 98.4 464.6 63 423.5 Q 33.5 390 16 344.5 L 10 326.5 L 4 300.5 L 3 288.5 L 2 287.5 L 2 278.5 L 1 277.5 L 1 257.5 L 0 255.5 L 1 254.5 L 2 224.5 L 6 201.5 L 10 185.5 L 23 150.5 Q 47.1 99.1 87.5 64 Q 121.2 33.7 167.5 16 L 185.5 10 L 211.5 4 L 223.5 3 L 224.5 2 L 233.5 2 L 234.5 1 L 253.5 1 L 254.5 0 Z " /><path fill="rgb(255,64,92)" stroke="rgb(255,64,92)" stroke-width="1" opacity="1" d="M 244.5 150 L 243.5 152 L 244.5 150 Z " /><path fill="rgb(255,64,92)" stroke="rgb(255,64,92)" stroke-width="1" opacity="1" d="M 239.5 154 L 238.5 156 L 239.5 154 Z " /><path fill="rgb(255,64,92)" stroke="rgb(255,64,92)" stroke-width="1" opacity="1" d="M 272.5 154 L 273.5 156 L 272.5 154 Z " /><path fill="rgb(255,64,92)" stroke="rgb(255,64,92)" stroke-width="1" opacity="1" d="M 277.5 158 L 278.5 160 L 277.5 158 Z " /><path fill="rgb(255,64,92)" stroke="rgb(255,64,92)" stroke-width="1" opacity="1" d="M 282.5 162 L 283.5 164 L 282.5 162 Z " /><path fill="rgb(255,64,92)" stroke="rgb(255,64,92)" stroke-width="1" opacity="1" d="M 213.5 175 L 212.5 177 L 213.5 175 Z " /><path fill="rgb(255,64,92)" stroke="rgb(255,64,92)" stroke-width="1" opacity="1" d="M 208.5 179 L 207.5 181 L 208.5 179 Z " /><path fill="rgb(255,64,92)" stroke="rgb(255,64,92)" stroke-width="1" opacity="1" d="M 303.5 179 L 304.5 181 L 303.5 179 Z " /><path fill="rgb(255,64,92)" stroke="rgb(255,64,92)" stroke-width="1" opacity="1" d="M 308.5 183 L 309.5 185 L 308.5 183 Z " /><path fill="rgb(255,64,92)" stroke="rgb(255,64,92)" stroke-width="1" opacity="1" d="M 313.5 187 L 314.5 189 L 313.5 187 Z " /><path fill="rgb(255,64,92)" stroke="rgb(255,64,92)" stroke-width="1" opacity="1" d="M 182.5 200 L 181.5 202 L 182.5 200 Z " /><path fill="rgb(255,64,92)" stroke="rgb(255,64,92)" stroke-width="1" opacity="1" d="M 177.5 204 L 176.5 206 L 177.5 204 Z " /><path fill="rgb(255,64,92)" stroke="rgb(255,64,92)" stroke-width="1" opacity="1" d="M 334.5 204 L 335.5 206 L 334.5 204 Z " /><path fill="rgb(255,64,92)" stroke="rgb(255,64,92)" stroke-width="1" opacity="1" d="M 339.5 208 L 340.5 210 L 339.5 208 Z " /><path fill="rgb(255,64,92)" stroke="rgb(255,64,92)" stroke-width="1" opacity="1" d="M 344.5 212 L 345.5 214 L 344.5 212 Z " /><path fill="rgb(255,64,92)" stroke="rgb(255,64,92)" stroke-width="1" opacity="1" d="M 156.5 221 L 155.5 223 L 156.5 221 Z " /><path fill="rgb(255,64,92)" stroke="rgb(255,64,92)" stroke-width="1" opacity="1" d="M 153.5 224 L 163 224.5 L 153.5 225 L 153.5 224 Z " /><path fill="rgb(255,64,92)" stroke="rgb(255,64,92)" stroke-width="1" opacity="1" d="M 349.5 224 L 359 224.5 L 349.5 225 L 349.5 224 Z " /><path fill="rgb(255,64,92)" stroke="rgb(255,64,92)" stroke-width="1" opacity="1" d="M 169.5 227 L 170.5 229 L 169.5 227 Z " /><path fill="rgb(255,64,92)" stroke="rgb(255,64,92)" stroke-width="1" opacity="1" d="M 342.5 227 L 341.5 229 L 342.5 227 Z " /><path fill="rgb(255,64,92)" stroke="rgb(255,64,92)" stroke-width="1" opacity="1" d="M 173.5 234 L 174 373.5 L 173 373.5 L 173.5 234 Z " /><path fill="rgb(255,64,92)" stroke="rgb(255,64,92)" stroke-width="1" opacity="1" d="M 338.5 234 L 339 373.5 L 338 373.5 L 338.5 234 Z " /><path fill="rgb(255,64,92)" stroke="rgb(255,64,92)" stroke-width="1" opacity="1" d="M 405.5 234 L 406 238.5 L 405 238.5 L 405.5 234 Z " /><path fill="rgb(255,64,92)" stroke="rgb(255,64,92)" stroke-width="1" opacity="1" d="M 403.5 243 L 402.5 245 L 403.5 243 Z " /><path fill="rgb(255,64,92)" stroke="rgb(255,64,92)" stroke-width="1" opacity="1" d="M 362.5 386 L 363 388.5 L 362 388.5 L 362.5 386 Z " /><path fill="rgb(255,64,92)" stroke="rgb(255,64,92)" stroke-width="1" opacity="1" d="M 283.5 395 L 284.5 397 L 283.5 395 Z " /><path fill="rgb(255,64,92)" stroke="rgb(255,64,92)" stroke-width="1" opacity="1" d="M 161.5 398 L 221 398.5 L 161.5 399 L 161.5 398 Z " /><path fill="rgb(255,64,92)" stroke="rgb(255,64,92)" stroke-width="1" opacity="1" d="M 291.5 398 L 351 398.5 L 291.5 399 L 291.5 398 Z " /><path fill="rgb(225,28,109)" stroke="rgb(225,28,109)" stroke-width="1" opacity="0.6078431372549019" d="M 233.5 0 L 242 0.5 L 233.5 1 L 233.5 0 Z " /><path fill="rgb(225,28,109)" stroke="rgb(225,28,109)" stroke-width="1" opacity="0.6078431372549019" d="M 270.5 0 L 279 0.5 L 270.5 1 L 270.5 0 Z " /><path fill="rgb(225,28,109)" stroke="rgb(225,28,109)" stroke-width="1" opacity="0.6078431372549019" d="M 224.5 1 L 230 1.5 L 224.5 2 L 224.5 1 Z " /><path fill="rgb(225,28,109)" stroke="rgb(225,28,109)" stroke-width="1" opacity="0.6078431372549019" d="M 282.5 1 L 288 1.5 L 282.5 2 L 282.5 1 Z " /><path fill="rgb(225,28,109)" stroke="rgb(225,28,109)" stroke-width="1" opacity="0.6078431372549019" d="M 217.5 2 L 221 2.5 L 217.5 3 L 217.5 2 Z " /><path fill="rgb(225,28,109)" stroke="rgb(225,28,109)" stroke-width="1" opacity="0.6078431372549019" d="M 291.5 2 L 295 2.5 L 291.5 3 L 291.5 2 Z " /><path fill="rgb(225,28,109)" stroke="rgb(225,28,109)" stroke-width="1" opacity="0.6078431372549019" d="M 211.5 3 L 215 3.5 L 211.5 4 L 211.5 3 Z " /><path fill="rgb(225,28,109)" stroke="rgb(225,28,109)" stroke-width="1" opacity="0.6078431372549019" d="M 298.5 3 L 302 3.5 L 298.5 4 L 298.5 3 Z " /><path fill="rgb(225,28,109)" stroke="rgb(225,28,109)" stroke-width="1" opacity="0.6078431372549019" d="M 205.5 4 L 209 4.5 L 205.5 5 L 205.5 4 Z " /><path fill="rgb(225,28,109)" stroke="rgb(225,28,109)" stroke-width="1" opacity="0.6078431372549019" d="M 303.5 4 L 307 4.5 L 303.5 5 L 303.5 4 Z " /><path fill="rgb(225,28,109)" stroke="rgb(225,28,109)" stroke-width="1" opacity="0.6078431372549019" d="M 201.5 5 L 204 5.5 L 201.5 6 L 201.5 5 Z " /><path fill="rgb(225,28,109)" stroke="rgb(225,28,109)" stroke-width="1" opacity="0.6078431372549019" d="M 308.5 5 L 311 5.5 L 308.5 6 L 308.5 5 Z " /><path fill="rgb(225,28,109)" stroke="rgb(225,28,109)" stroke-width="1" opacity="0.6078431372549019" d="M 196.5 6 L 199 6.5 L 196.5 7 L 196.5 6 Z " /><path fill="rgb(225,28,109)" stroke="rgb(225,28,109)" stroke-width="1" opacity="0.6078431372549019" d="M 313.5 6 L 316 6.5 L 313.5 7 L 313.5 6 Z " /><path fill="rgb(225,28,109)" stroke="rgb(225,28,109)" stroke-width="1" opacity="0.6078431372549019" d="M 192.5 7 L 195 7.5 L 192.5 8 L 192.5 7 Z " /><path fill="rgb(225,28,109)" stroke="rgb(225,28,109)" stroke-width="1" opacity="0.6078431372549019" d="M 317.5 7 L 320 7.5 L 317.5 8 L 317.5 7 Z " /><path fill="rgb(225,28,109)" stroke="rgb(225,28,109)" stroke-width="1" opacity="0.6078431372549019" d="M 188.5 8 L 191 8.5 L 188.5 9 L 188.5 8 Z " /><path fill="rgb(225,28,109)" stroke="rgb(225,28,109)" stroke-width="1" opacity="0.6078431372549019" d="M 321.5 8 L 324 8.5 L 321.5 9 L 321.5 8 Z " /><path fill="rgb(225,28,109)" stroke="rgb(225,28,109)" stroke-width="1" opacity="0.6078431372549019" d="M 181.5 10 L 184 10.5 L 175.5 13 L 175.5 12 L 181.5 10 Z " /><path fill="rgb(225,28,109)" stroke="rgb(225,28,109)" stroke-width="1" opacity="0.6078431372549019" d="M 328.5 10 L 334 11.5 L 331.5 12 L 328.5 11 L 328.5 10 Z " /><path fill="rgb(225,28,109)" stroke="rgb(225,28,109)" stroke-width="1" opacity="0.6078431372549019" d="M 172.5 13 L 174 13.5 L 167.5 16 L 167.5 15 L 172.5 13 Z " /><path fill="rgb(225,28,109)" stroke="rgb(225,28,109)" stroke-width="1" opacity="0.6078431372549019" d="M 341.5 14 L 345 15.5 L 343.5 16 L 341.5 14 Z " /><path fill="rgb(225,28,109)" stroke="rgb(225,28,109)" stroke-width="1" opacity="0.6078431372549019" d="M 161.5 17 L 163 17.5 L 159.5 19 L 159.5 18 L 161.5 17 Z " /><path fill="rgb(225,28,109)" stroke="rgb(225,28,109)" stroke-width="1" opacity="0.6078431372549019" d="M 349.5 17 L 353 18.5 L 351.5 19 L 349.5 17 Z " /><path fill="rgb(225,28,109)" stroke="rgb(225,28,109)" stroke-width="1" opacity="0.6078431372549019" d="M 156.5 19 L 158 19.5 L 152.5 22 L 152.5 21 L 156.5 19 Z " /><path fill="rgb(225,28,109)" stroke="rgb(225,28,109)" stroke-width="1" opacity="0.6078431372549019" d="M 354.5 19 L 362 22.5 L 360.5 23 L 354.5 20 L 354.5 19 Z " /><path fill="rgb(225,28,109)" stroke="rgb(225,28,109)" stroke-width="1" opacity="0.6078431372549019" d="M 145.5 24 L 147 24.5 L 138.5 29 L 139.5 27 L 145.5 24 Z " /><path fill="rgb(225,28,109)" stroke="rgb(225,28,109)" stroke-width="1" opacity="0.6078431372549019" d="M 365.5 24 L 374 28.5 L 372.5 28 L 365.5 25 L 365.5 24 Z " /><path fill="rgb(225,28,109)" stroke="rgb(225,28,109)" stroke-width="1" opacity="0.6078431372549019" d="M 132.5 31 L 131.5 33 L 127.5 35 L 128.5 33 L 132.5 31 Z " /><path fill="rgb(225,28,109)" stroke="rgb(225,28,109)" stroke-width="1" opacity="0.6078431372549019" d="M 379.5 31 L 385 34.5 L 383.5 34 Q 379.5 33.5 379.5 31 Z " /><path fill="rgb(225,28,109)" stroke="rgb(225,28,109)" stroke-width="1" opacity="0.6078431372549019" d="M 125.5 35 L 124.5 37 L 122.5 38 L 123.5 36 L 125.5 35 Z " /><path fill="rgb(225,28,109)" stroke="rgb(225,28,109)" stroke-width="1" opacity="0.6078431372549019" d="M 386.5 35 L 390 37.5 L 388.5 37 L 386.5 35 Z " /><path fill="rgb(225,28,109)" stroke="rgb(225,28,109)" stroke-width="1" opacity="0.6078431372549019" d="M 120.5 38 L 119.5 40 L 110.5 46 L 112.5 43 L 120.5 38 Z " /><path fill="rgb(225,28,109)" stroke="rgb(225,28,109)" stroke-width="1" opacity="0.6078431372549019" d="M 391.5 38 Q 406.3 46.2 418 57.5 L 414.5 55 L 392.5 40 L 391.5 38 Z " /><path fill="rgb(225,28,109)" stroke="rgb(225,28,109)" stroke-width="1" opacity="0.6078431372549019" d="M 108.5 46 L 106.5 49 L 94.5 58 L 97.5 54 L 108.5 46 Z " /><path fill="rgb(225,28,109)" stroke="rgb(225,28,109)" stroke-width="1" opacity="0.6078431372549019" d="M 92.5 58 L 86.5 65 L 65 85.5 L 58.5 93 L 64 86.5 L 85.5 64 L 92.5 58 Z " /><path fill="rgb(225,28,109)" stroke="rgb(225,28,109)" stroke-width="1" opacity="0.6078431372549019" d="M 419.5 58 L 449 86.5 L 454 92.5 L 448 87.5 L 426.5 65 L 419.5 58 Z " /><path fill="rgb(225,28,109)" stroke="rgb(225,28,109)" stroke-width="1" opacity="0.6078431372549019" d="M 57.5 94 L 55 97.5 L 38.5 121 L 39 119.5 Q 46.6 105.1 57.5 94 Z " /><path fill="rgb(225,28,109)" stroke="rgb(225,28,109)" stroke-width="1" opacity="0.6078431372549019" d="M 454.5 94 L 472 117.5 L 470 116.5 L 454.5 94 Z " /><path fill="rgb(225,28,109)" stroke="rgb(225,28,109)" stroke-width="1" opacity="0.6078431372549019" d="M 472.5 119 L 473.5 121 L 472.5 119 Z " /><path fill="rgb(225,28,109)" stroke="rgb(225,28,109)" stroke-width="1" opacity="0.6078431372549019" d="M 37.5 122 L 37 123.5 L 35.5 126 L 36 124.5 L 37.5 122 Z " /><path fill="rgb(225,28,109)" stroke="rgb(225,28,109)" stroke-width="1" opacity="0.6078431372549019" d="M 474.5 122 L 477 125.5 L 475 124.5 L 474.5 122 Z " /><path fill="rgb(225,28,109)" stroke="rgb(225,28,109)" stroke-width="1" opacity="0.6078431372549019" d="M 34.5 127 L 34 128.5 L 31.5 133 L 32 131.5 L 34.5 127 Z " /><path fill="rgb(225,28,109)" stroke="rgb(225,28,109)" stroke-width="1" opacity="0.6078431372549019" d="M 477.5 127 L 481 132.5 L 479 131.5 L 477.5 127 Z " /><path fill="rgb(225,28,109)" stroke="rgb(225,28,109)" stroke-width="1" opacity="0.6078431372549019" d="M 482.5 136 L 488 146.5 L 487 146.5 L 482.5 136 Z " /><path fill="rgb(225,28,109)" stroke="rgb(225,28,109)" stroke-width="1" opacity="0.6078431372549019" d="M 28.5 138 L 28 139.5 L 24.5 147 L 24 145.5 L 28.5 138 Z " /><path fill="rgb(225,28,109)" stroke="rgb(225,28,109)" stroke-width="1" opacity="0.6078431372549019" d="M 21.5 152 L 22 153.5 L 19.5 158 L 19 156.5 L 21.5 152 Z " /><path fill="rgb(225,28,109)" stroke="rgb(225,28,109)" stroke-width="1" opacity="0.6078431372549019" d="M 490.5 152 L 492 155.5 L 491 155.5 L 490.5 152 Z " /><path fill="rgb(225,28,109)" stroke="rgb(225,28,109)" stroke-width="1" opacity="0.6078431372549019" d="M 18.5 159 L 19 160.5 L 17.5 163 L 17 161.5 L 18.5 159 Z " /><path fill="rgb(225,28,109)" stroke="rgb(225,28,109)" stroke-width="1" opacity="0.6078431372549019" d="M 493.5 159 L 495 162.5 L 494 162.5 L 493.5 159 Z " /><path fill="rgb(225,28,109)" stroke="rgb(225,28,109)" stroke-width="1" opacity="0.6078431372549019" d="M 15.5 167 L 16 168.5 L 14.5 171 L 14 169.5 L 15.5 167 Z " /><path fill="rgb(225,28,109)" stroke="rgb(225,28,109)" stroke-width="1" opacity="0.6078431372549019" d="M 496.5 167 L 499 173.5 L 498 173.5 L 496.5 167 Z " /><path fill="rgb(225,28,109)" stroke="rgb(225,28,109)" stroke-width="1" opacity="0.6078431372549019" d="M 500.5 178 L 502 183.5 L 501 183.5 L 500.5 178 Z " /><path fill="rgb(225,28,109)" stroke="rgb(225,28,109)" stroke-width="1" opacity="0.6078431372549019" d="M 10.5 181 L 11 183.5 L 10 183.5 L 10.5 181 Z " /><path fill="rgb(225,28,109)" stroke="rgb(225,28,109)" stroke-width="1" opacity="0.6078431372549019" d="M 8.5 188 L 9 190.5 L 8 190.5 L 8.5 188 Z " /><path fill="rgb(225,28,109)" stroke="rgb(225,28,109)" stroke-width="1" opacity="0.6078431372549019" d="M 503.5 188 L 504 190.5 L 503 190.5 L 503.5 188 Z " /><path fill="rgb(225,28,109)" stroke="rgb(225,28,109)" stroke-width="1" opacity="0.6078431372549019" d="M 7.5 192 L 8 194.5 L 7 194.5 L 7.5 192 Z " /><path fill="rgb(225,28,109)" stroke="rgb(225,28,109)" stroke-width="1" opacity="0.6078431372549019" d="M 504.5 192 L 505 194.5 L 504 194.5 L 504.5 192 Z " /><path fill="rgb(225,28,109)" stroke="rgb(225,28,109)" stroke-width="1" opacity="0.6078431372549019" d="M 6.5 196 L 7 198.5 L 6 198.5 L 6.5 196 Z " /><path fill="rgb(225,28,109)" stroke="rgb(225,28,109)" stroke-width="1" opacity="0.6078431372549019" d="M 505.5 196 L 506 198.5 L 505 198.5 L 505.5 196 Z " /><path fill="rgb(225,28,109)" stroke="rgb(225,28,109)" stroke-width="1" opacity="0.6078431372549019" d="M 5.5 201 L 6 203.5 L 5 203.5 L 5.5 201 Z " /><path fill="rgb(225,28,109)" stroke="rgb(225,28,109)" stroke-width="1" opacity="0.6078431372549019" d="M 506.5 201 L 507 203.5 L 506 203.5 L 506.5 201 Z " /><path fill="rgb(225,28,109)" stroke="rgb(225,28,109)" stroke-width="1" opacity="0.6078431372549019" d="M 4.5 205 L 5 208.5 L 4 208.5 L 4.5 205 Z " /><path fill="rgb(225,28,109)" stroke="rgb(225,28,109)" stroke-width="1" opacity="0.6078431372549019" d="M 507.5 205 L 508 208.5 L 507 208.5 L 507.5 205 Z " /><path fill="rgb(225,28,109)" stroke="rgb(225,28,109)" stroke-width="1" opacity="0.6078431372549019" d="M 3.5 210 L 4 214.5 L 3 214.5 L 3.5 210 Z " /><path fill="rgb(225,28,109)" stroke="rgb(225,28,109)" stroke-width="1" opacity="0.6078431372549019" d="M 508.5 211 L 509 214.5 L 508 214.5 L 508.5 211 Z " /><path fill="rgb(225,28,109)" stroke="rgb(225,28,109)" stroke-width="1" opacity="0.6078431372549019" d="M 2.5 217 L 3 220.5 L 2 220.5 L 2.5 217 Z " /><path fill="rgb(225,28,109)" stroke="rgb(225,28,109)" stroke-width="1" opacity="0.6078431372549019" d="M 509.5 217 L 510 220.5 L 509 220.5 L 509.5 217 Z " /><path fill="rgb(225,28,109)" stroke="rgb(225,28,109)" stroke-width="1" opacity="0.6078431372549019" d="M 1.5 224 L 2 228.5 L 1 228.5 L 1.5 224 Z " /><path fill="rgb(225,28,109)" stroke="rgb(225,28,109)" stroke-width="1" opacity="0.6078431372549019" d="M 510.5 224 L 511 229.5 L 510 229.5 L 510.5 224 Z " /><path fill="rgb(225,28,109)" stroke="rgb(225,28,109)" stroke-width="1" opacity="0.6078431372549019" d="M 0.5 233 L 1 241.5 L 0 241.5 L 0.5 233 Z " /><path fill="rgb(225,28,109)" stroke="rgb(225,28,109)" stroke-width="1" opacity="0.6078431372549019" d="M 511.5 233 L 512 241.5 L 511 241.5 L 511.5 233 Z " /><path fill="rgb(225,28,109)" stroke="rgb(225,28,109)" stroke-width="1" opacity="0.6078431372549019" d="M 0.5 270 L 1 278.5 L 0 278.5 L 0.5 270 Z " /><path fill="rgb(225,28,109)" stroke="rgb(225,28,109)" stroke-width="1" opacity="0.6078431372549019" d="M 511.5 270 L 512 278.5 L 511 278.5 L 511.5 270 Z " /><path fill="rgb(225,28,109)" stroke="rgb(225,28,109)" stroke-width="1" opacity="0.6078431372549019" d="M 510.5 282 L 511 287.5 L 510 287.5 L 510.5 282 Z " /><path fill="rgb(225,28,109)" stroke="rgb(225,28,109)" stroke-width="1" opacity="0.6078431372549019" d="M 1.5 283 L 2 287.5 L 1 287.5 L 1.5 283 Z " /><path fill="rgb(225,28,109)" stroke="rgb(225,28,109)" stroke-width="1" opacity="0.6078431372549019" d="M 2.5 291 L 3 294.5 L 2 294.5 L 2.5 291 Z " /><path fill="rgb(225,28,109)" stroke="rgb(225,28,109)" stroke-width="1" opacity="0.6078431372549019" d="M 509.5 291 L 510 294.5 L 509 294.5 L 509.5 291 Z " /><path fill="rgb(225,28,109)" stroke="rgb(225,28,109)" stroke-width="1" opacity="0.6078431372549019" d="M 3.5 297 L 4 301.5 L 3 301.5 L 3.5 297 Z " /><path fill="rgb(225,28,109)" stroke="rgb(225,28,109)" stroke-width="1" opacity="0.6078431372549019" d="M 508.5 297 L 509 300.5 L 508 300.5 L 508.5 297 Z " /><path fill="rgb(225,28,109)" stroke="rgb(225,28,109)" stroke-width="1" opacity="0.6078431372549019" d="M 4.5 303 L 5 306.5 L 4 306.5 L 4.5 303 Z " /><path fill="rgb(225,28,109)" stroke="rgb(225,28,109)" stroke-width="1" opacity="0.6078431372549019" d="M 507.5 303 L 508 306.5 L 507 306.5 L 507.5 303 Z " /><path fill="rgb(225,28,109)" stroke="rgb(225,28,109)" stroke-width="1" opacity="0.6078431372549019" d="M 5.5 308 L 6 310.5 L 5 310.5 L 5.5 308 Z " /><path fill="rgb(225,28,109)" stroke="rgb(225,28,109)" stroke-width="1" opacity="0.6078431372549019" d="M 506.5 308 L 507 310.5 L 506 310.5 L 506.5 308 Z " /><path fill="rgb(225,28,109)" stroke="rgb(225,28,109)" stroke-width="1" opacity="0.6078431372549019" d="M 6.5 313 L 7 315.5 L 6 315.5 L 6.5 313 Z " /><path fill="rgb(225,28,109)" stroke="rgb(225,28,109)" stroke-width="1" opacity="0.6078431372549019" d="M 505.5 313 L 506 315.5 L 505 315.5 L 505.5 313 Z " /><path fill="rgb(225,28,109)" stroke="rgb(225,28,109)" stroke-width="1" opacity="0.6078431372549019" d="M 7.5 317 L 8 319.5 L 7 319.5 L 7.5 317 Z " /><path fill="rgb(225,28,109)" stroke="rgb(225,28,109)" stroke-width="1" opacity="0.6078431372549019" d="M 504.5 317 L 505 319.5 L 504 319.5 L 504.5 317 Z " /><path fill="rgb(225,28,109)" stroke="rgb(225,28,109)" stroke-width="1" opacity="0.6078431372549019" d="M 8.5 321 L 9 323.5 L 8 323.5 L 8.5 321 Z " /><path fill="rgb(225,28,109)" stroke="rgb(225,28,109)" stroke-width="1" opacity="0.6078431372549019" d="M 503.5 321 L 504 323.5 L 503 323.5 L 503.5 321 Z " /><path fill="rgb(225,28,109)" stroke="rgb(225,28,109)" stroke-width="1" opacity="0.6078431372549019" d="M 10.5 328 L 11 330.5 L 10 330.5 L 10.5 328 Z " /><path fill="rgb(225,28,109)" stroke="rgb(225,28,109)" stroke-width="1" opacity="0.6078431372549019" d="M 501.5 328 L 502 330.5 L 500.5 334 L 500 331.5 L 501.5 328 Z " /><path fill="rgb(225,28,109)" stroke="rgb(225,28,109)" stroke-width="1" opacity="0.6078431372549019" d="M 498.5 338 L 499 339.5 L 496.5 345 L 496 343.5 L 498.5 338 Z " /><path fill="rgb(225,28,109)" stroke="rgb(225,28,109)" stroke-width="1" opacity="0.6078431372549019" d="M 14.5 341 L 16 344.5 L 15 344.5 L 14.5 341 Z " /><path fill="rgb(225,28,109)" stroke="rgb(225,28,109)" stroke-width="1" opacity="0.6078431372549019" d="M 17.5 349 L 19 352.5 L 18 352.5 L 17.5 349 Z " /><path fill="rgb(225,28,109)" stroke="rgb(225,28,109)" stroke-width="1" opacity="0.6078431372549019" d="M 494.5 349 L 495 350.5 L 493.5 353 L 493 351.5 L 494.5 349 Z " /><path fill="rgb(225,28,109)" stroke="rgb(225,28,109)" stroke-width="1" opacity="0.6078431372549019" d="M 19.5 354 L 23 361.5 L 22 361.5 L 19.5 354 Z " /><path fill="rgb(225,28,109)" stroke="rgb(225,28,109)" stroke-width="1" opacity="0.6078431372549019" d="M 492.5 354 L 493 355.5 L 489.5 362 L 489 360.5 L 492.5 354 Z " /><path fill="rgb(225,28,109)" stroke="rgb(225,28,109)" stroke-width="1" opacity="0.6078431372549019" d="M 24.5 365 L 29 373.5 L 27 372.5 L 24.5 365 Z " /><path fill="rgb(225,28,109)" stroke="rgb(225,28,109)" stroke-width="1" opacity="0.6078431372549019" d="M 487.5 365 L 488 366.5 L 482.5 376 L 483 374.5 L 487.5 365 Z " /><path fill="rgb(225,28,109)" stroke="rgb(225,28,109)" stroke-width="1" opacity="0.6078431372549019" d="M 31.5 379 L 35 384.5 L 33 383.5 L 31.5 379 Z " /><path fill="rgb(225,28,109)" stroke="rgb(225,28,109)" stroke-width="1" opacity="0.6078431372549019" d="M 480.5 379 L 480 380.5 L 477.5 385 L 478 383.5 L 480.5 379 Z " /><path fill="rgb(225,28,109)" stroke="rgb(225,28,109)" stroke-width="1" opacity="0.6078431372549019" d="M 35.5 386 L 38 389.5 L 36 388.5 L 35.5 386 Z " /><path fill="rgb(225,28,109)" stroke="rgb(225,28,109)" stroke-width="1" opacity="0.6078431372549019" d="M 476.5 386 L 476 387.5 L 474.5 390 L 475 388.5 L 476.5 386 Z " /><path fill="rgb(225,28,109)" stroke="rgb(225,28,109)" stroke-width="1" opacity="0.6078431372549019" d="M 38.5 391 L 58 417.5 L 54 414.5 L 39 393.5 L 38.5 391 Z " /><path fill="rgb(225,28,109)" stroke="rgb(225,28,109)" stroke-width="1" opacity="0.6078431372549019" d="M 473.5 391 L 473 392.5 L 464.5 405 L 466 402.5 L 473.5 391 Z " /><path fill="rgb(225,28,109)" stroke="rgb(225,28,109)" stroke-width="1" opacity="0.6078431372549019" d="M 463.5 406 L 462 408.5 L 458.5 413 L 461 409.5 L 463.5 406 Z " /><path fill="rgb(225,28,109)" stroke="rgb(225,28,109)" stroke-width="1" opacity="0.6078431372549019" d="M 457.5 414 L 454 418.5 L 449 425.5 L 426.5 448 L 448 425.5 L 457.5 414 Z " /><path fill="rgb(225,28,109)" stroke="rgb(225,28,109)" stroke-width="1" opacity="0.6078431372549019" d="M 58.5 419 L 85.5 447 L 93 453.5 L 86.5 448 L 64 426.5 L 58.5 419 Z " /><path fill="rgb(225,28,109)" stroke="rgb(225,28,109)" stroke-width="1" opacity="0.6078431372549019" d="M 424.5 448 L 419.5 454 L 424.5 448 Z " /><path fill="rgb(225,28,109)" stroke="rgb(225,28,109)" stroke-width="1" opacity="0.6078431372549019" d="M 94.5 454 L 109 465.5 L 106.5 464 Q 97.9 460.1 94.5 454 Z " /><path fill="rgb(225,28,109)" stroke="rgb(225,28,109)" stroke-width="1" opacity="0.6078431372549019" d="M 417.5 454 L 414.5 458 L 417.5 454 Z " /><path fill="rgb(225,28,109)" stroke="rgb(225,28,109)" stroke-width="1" opacity="0.6078431372549019" d="M 412.5 458 L 409.5 462 L 406.5 464 L 408.5 461 L 412.5 458 Z " /><path fill="rgb(225,28,109)" stroke="rgb(225,28,109)" stroke-width="1" opacity="0.6078431372549019" d="M 404.5 464 L 402.5 467 L 391.5 474 L 392.5 472 L 404.5 464 Z " /><path fill="rgb(225,28,109)" stroke="rgb(225,28,109)" stroke-width="1" opacity="0.6078431372549019" d="M 110.5 466 L 118 471.5 L 116.5 471 Q 111.5 469.5 110.5 466 Z " /><path fill="rgb(225,28,109)" stroke="rgb(225,28,109)" stroke-width="1" opacity="0.6078431372549019" d="M 119.5 472 L 120.5 474 L 119.5 472 Z " /><path fill="rgb(225,28,109)" stroke="rgb(225,28,109)" stroke-width="1" opacity="0.6078431372549019" d="M 122.5 474 L 126 476.5 L 124.5 476 L 122.5 474 Z " /><path fill="rgb(225,28,109)" stroke="rgb(225,28,109)" stroke-width="1" opacity="0.6078431372549019" d="M 389.5 474 L 388.5 476 L 386.5 477 L 387.5 475 L 389.5 474 Z " /><path fill="rgb(225,28,109)" stroke="rgb(225,28,109)" stroke-width="1" opacity="0.6078431372549019" d="M 127.5 477 L 133 480.5 L 131.5 480 Q 127.5 479.5 127.5 477 Z " /><path fill="rgb(225,28,109)" stroke="rgb(225,28,109)" stroke-width="1" opacity="0.6078431372549019" d="M 384.5 477 L 383.5 479 L 379.5 481 L 380.5 479 L 384.5 477 Z " /><path fill="rgb(225,28,109)" stroke="rgb(225,28,109)" stroke-width="1" opacity="0.6078431372549019" d="M 377.5 481 L 376.5 483 L 365.5 488 L 365.5 487 L 377.5 481 Z " /><path fill="rgb(225,28,109)" stroke="rgb(225,28,109)" stroke-width="1" opacity="0.6078431372549019" d="M 136.5 482 L 147 487.5 L 145.5 488 L 137.5 484 L 136.5 482 Z " /><path fill="rgb(225,28,109)" stroke="rgb(225,28,109)" stroke-width="1" opacity="0.6078431372549019" d="M 152.5 490 L 158 492.5 L 156.5 493 L 152.5 491 L 152.5 490 Z " /><path fill="rgb(225,28,109)" stroke="rgb(225,28,109)" stroke-width="1" opacity="0.6078431372549019" d="M 358.5 490 L 360 490.5 L 354.5 493 L 354.5 492 L 358.5 490 Z " /><path fill="rgb(225,28,109)" stroke="rgb(225,28,109)" stroke-width="1" opacity="0.6078431372549019" d="M 159.5 493 L 163 494.5 L 161.5 495 L 159.5 493 Z " /><path fill="rgb(225,28,109)" stroke="rgb(225,28,109)" stroke-width="1" opacity="0.6078431372549019" d="M 351.5 493 L 353 493.5 L 349.5 495 L 349.5 494 L 351.5 493 Z " /><path fill="rgb(225,28,109)" stroke="rgb(225,28,109)" stroke-width="1" opacity="0.6078431372549019" d="M 167.5 496 L 174 498.5 L 172.5 499 L 167.5 497 L 167.5 496 Z " /><path fill="rgb(225,28,109)" stroke="rgb(225,28,109)" stroke-width="1" opacity="0.6078431372549019" d="M 343.5 496 L 345 496.5 L 341.5 498 L 341.5 497 L 343.5 496 Z " /><path fill="rgb(225,28,109)" stroke="rgb(225,28,109)" stroke-width="1" opacity="0.6078431372549019" d="M 175.5 499 L 184 501.5 L 181.5 502 L 175.5 500 L 175.5 499 Z " /><path fill="rgb(225,28,109)" stroke="rgb(225,28,109)" stroke-width="1" opacity="0.6078431372549019" d="M 328.5 501 L 331 501.5 L 328.5 502 L 328.5 501 Z " /><path fill="rgb(225,28,109)" stroke="rgb(225,28,109)" stroke-width="1" opacity="0.6078431372549019" d="M 188.5 503 L 191 503.5 L 188.5 504 L 188.5 503 Z " /><path fill="rgb(225,28,109)" stroke="rgb(225,28,109)" stroke-width="1" opacity="0.6078431372549019" d="M 321.5 503 L 324 503.5 L 321.5 504 L 321.5 503 Z " /><path fill="rgb(225,28,109)" stroke="rgb(225,28,109)" stroke-width="1" opacity="0.6078431372549019" d="M 192.5 504 L 195 504.5 L 192.5 505 L 192.5 504 Z " /><path fill="rgb(225,28,109)" stroke="rgb(225,28,109)" stroke-width="1" opacity="0.6078431372549019" d="M 317.5 504 L 320 504.5 L 317.5 505 L 317.5 504 Z " /><path fill="rgb(225,28,109)" stroke="rgb(225,28,109)" stroke-width="1" opacity="0.6078431372549019" d="M 196.5 505 L 199 505.5 L 196.5 506 L 196.5 505 Z " /><path fill="rgb(225,28,109)" stroke="rgb(225,28,109)" stroke-width="1" opacity="0.6078431372549019" d="M 313.5 505 L 316 505.5 L 313.5 506 L 313.5 505 Z " /><path fill="rgb(225,28,109)" stroke="rgb(225,28,109)" stroke-width="1" opacity="0.6078431372549019" d="M 201.5 506 L 204 506.5 L 201.5 507 L 201.5 506 Z " /><path fill="rgb(225,28,109)" stroke="rgb(225,28,109)" stroke-width="1" opacity="0.6078431372549019" d="M 308.5 506 L 311 506.5 L 308.5 507 L 308.5 506 Z " /><path fill="rgb(225,28,109)" stroke="rgb(225,28,109)" stroke-width="1" opacity="0.6078431372549019" d="M 205.5 507 L 209 507.5 L 205.5 508 L 205.5 507 Z " /><path fill="rgb(225,28,109)" stroke="rgb(225,28,109)" stroke-width="1" opacity="0.6078431372549019" d="M 303.5 507 L 307 507.5 L 303.5 508 L 303.5 507 Z " /><path fill="rgb(225,28,109)" stroke="rgb(225,28,109)" stroke-width="1" opacity="0.6078431372549019" d="M 211.5 508 L 215 508.5 L 211.5 509 L 211.5 508 Z " /><path fill="rgb(225,28,109)" stroke="rgb(225,28,109)" stroke-width="1" opacity="0.6078431372549019" d="M 297.5 508 L 302 508.5 L 297.5 509 L 297.5 508 Z " /><path fill="rgb(225,28,109)" stroke="rgb(225,28,109)" stroke-width="1" opacity="0.6078431372549019" d="M 217.5 509 L 221 509.5 L 217.5 510 L 217.5 509 Z " /><path fill="rgb(225,28,109)" stroke="rgb(225,28,109)" stroke-width="1" opacity="0.6078431372549019" d="M 291.5 509 L 295 509.5 L 291.5 510 L 291.5 509 Z " /><path fill="rgb(225,28,109)" stroke="rgb(225,28,109)" stroke-width="1" opacity="0.6078431372549019" d="M 224.5 510 L 230 510.5 L 224.5 511 L 224.5 510 Z " /><path fill="rgb(225,28,109)" stroke="rgb(225,28,109)" stroke-width="1" opacity="0.6078431372549019" d="M 282.5 510 L 288 510.5 L 282.5 511 L 282.5 510 Z " /><path fill="rgb(225,28,109)" stroke="rgb(225,28,109)" stroke-width="1" opacity="0.6078431372549019" d="M 233.5 511 L 242 511.5 L 233.5 512 L 233.5 511 Z " /><path fill="rgb(225,28,109)" stroke="rgb(225,28,109)" stroke-width="1" opacity="0.6078431372549019" d="M 269.5 511 L 279 511.5 L 269.5 512 L 269.5 511 Z " /><path fill="rgb(208,18,115)" stroke="rgb(208,18,115)" stroke-width="1" opacity="1" d="M 255.5 142 L 258.5 143 L 358 223.5 Q 346.3 222.8 341 228.5 L 338 234.5 L 338 374 L 303 374 L 303 277.5 L 298.5 271 L 295.5 269 L 216.5 269 L 211 273.5 L 209 277.5 L 209 374 L 174.5 374 L 174 373.5 L 174 234.5 L 169.5 227 Q 164.1 222.9 154 223.5 L 255.5 142 Z " /><path fill="rgb(208,18,115)" stroke="rgb(208,18,115)" stroke-width="1" opacity="1" d="M 405.5 232 L 501 327.5 L 501 330.5 Q 490.8 363.8 474 390.5 Q 453.7 423.2 425.5 448 Q 394.6 475.6 353.5 493 Q 334.6 501.1 312.5 506 L 290.5 510 L 269.5 511 L 156.5 397 L 161.5 399 L 220.5 399 L 227.5 397 L 231 393.5 L 233 389.5 L 233 293 L 279 293 L 279 389.5 L 284.5 397 L 291.5 399 L 350.5 399 L 360 395 L 363 388.5 L 363 249 L 395.5 249 Q 401.3 247.8 404 243.5 Q 406.6 240.6 406 234.5 L 405.5 232 Z " /><path fill="rgb(208,18,115)" stroke="rgb(208,18,115)" stroke-width="1" opacity="1" d="M 112.5 247 L 116.5 249 L 149 249 L 148.5 284 L 112.5 247 Z " /></svg>