<svg width="512" height="512" version="1.1" xmlns="http://www.w3.org/2000/svg" desc="Created with imagetracer.js version 1.2.6" ><path fill="rgb(225,79,95)" stroke="rgb(225,79,95)" stroke-width="1" opacity="0.5254901960784314" d="M 233.5 0 L 245 0.5 L 233.5 1 L 233.5 0 Z " /><path fill="rgb(225,79,95)" stroke="rgb(225,79,95)" stroke-width="1" opacity="0.5254901960784314" d="M 267.5 0 L 279 0.5 L 267.5 1 L 267.5 0 Z " /><path fill="rgb(225,79,95)" stroke="rgb(225,79,95)" stroke-width="1" opacity="0.5254901960784314" d="M 224.5 1 L 231 1.5 L 224.5 2 L 224.5 1 Z " /><path fill="rgb(225,79,95)" stroke="rgb(225,79,95)" stroke-width="1" opacity="0.5254901960784314" d="M 281.5 1 L 288 1.5 L 281.5 2 L 281.5 1 Z " /><path fill="rgb(225,79,95)" stroke="rgb(225,79,95)" stroke-width="1" opacity="0.5254901960784314" d="M 216.5 2 L 222 2.5 L 216.5 3 L 216.5 2 Z " /><path fill="rgb(225,79,95)" stroke="rgb(225,79,95)" stroke-width="1" opacity="0.5254901960784314" d="M 290.5 2 L 296 2.5 L 290.5 3 L 290.5 2 Z " /><path fill="rgb(225,79,95)" stroke="rgb(225,79,95)" stroke-width="1" opacity="0.5254901960784314" d="M 211.5 3 L 215 3.5 L 211.5 4 L 211.5 3 Z " /><path fill="rgb(225,79,95)" stroke="rgb(225,79,95)" stroke-width="1" opacity="0.5254901960784314" d="M 297.5 3 L 302 3.5 L 297.5 4 L 297.5 3 Z " /><path fill="rgb(225,79,95)" stroke="rgb(225,79,95)" stroke-width="1" opacity="0.5254901960784314" d="M 205.5 4 L 209 4.5 L 205.5 5 L 205.5 4 Z " /><path fill="rgb(225,79,95)" stroke="rgb(225,79,95)" stroke-width="1" opacity="0.5254901960784314" d="M 303.5 4 L 307 4.5 L 303.5 5 L 303.5 4 Z " /><path fill="rgb(225,79,95)" stroke="rgb(225,79,95)" stroke-width="1" opacity="0.5254901960784314" d="M 200.5 5 L 204 5.5 L 196.5 7 L 196.5 6 L 200.5 5 Z " /><path fill="rgb(225,79,95)" stroke="rgb(225,79,95)" stroke-width="1" opacity="0.5254901960784314" d="M 308.5 5 L 316 6.5 L 312.5 7 L 308.5 6 L 308.5 5 Z " /><path fill="rgb(225,79,95)" stroke="rgb(225,79,95)" stroke-width="1" opacity="0.5254901960784314" d="M 192.5 7 L 195 7.5 L 192.5 8 L 192.5 7 Z " /><path fill="rgb(225,79,95)" stroke="rgb(225,79,95)" stroke-width="1" opacity="0.5254901960784314" d="M 317.5 7 L 320 7.5 L 317.5 8 L 317.5 7 Z " /><path fill="rgb(225,79,95)" stroke="rgb(225,79,95)" stroke-width="1" opacity="0.5254901960784314" d="M 188.5 8 L 191 8.5 L 185.5 10 L 185.5 9 L 188.5 8 Z " /><path fill="rgb(225,79,95)" stroke="rgb(225,79,95)" stroke-width="1" opacity="0.5254901960784314" d="M 321.5 8 L 327 9.5 L 324.5 10 L 321.5 9 L 321.5 8 Z " /><path fill="rgb(225,79,95)" stroke="rgb(225,79,95)" stroke-width="1" opacity="0.5254901960784314" d="M 181.5 10 L 184 10.5 L 175.5 13 L 175.5 12 L 181.5 10 Z " /><path fill="rgb(225,79,95)" stroke="rgb(225,79,95)" stroke-width="1" opacity="0.5254901960784314" d="M 328.5 10 L 334 11.5 L 331.5 12 L 328.5 11 L 328.5 10 Z " /><path fill="rgb(225,79,95)" stroke="rgb(225,79,95)" stroke-width="1" opacity="0.5254901960784314" d="M 335.5 12 L 340 13.5 L 337.5 14 L 335.5 12 Z " /><path fill="rgb(225,79,95)" stroke="rgb(225,79,95)" stroke-width="1" opacity="0.5254901960784314" d="M 172.5 13 L 174 13.5 L 164.5 17 L 164.5 16 L 172.5 13 Z " /><path fill="rgb(225,79,95)" stroke="rgb(225,79,95)" stroke-width="1" opacity="0.5254901960784314" d="M 341.5 14 L 348 16.5 L 346.5 17 L 341.5 15 L 341.5 14 Z " /><path fill="rgb(225,79,95)" stroke="rgb(225,79,95)" stroke-width="1" opacity="0.5254901960784314" d="M 161.5 17 L 163 17.5 L 152.5 22 L 152.5 21 L 161.5 17 Z " /><path fill="rgb(225,79,95)" stroke="rgb(225,79,95)" stroke-width="1" opacity="0.5254901960784314" d="M 349.5 17 L 353 18.5 L 351.5 19 L 349.5 17 Z " /><path fill="rgb(225,79,95)" stroke="rgb(225,79,95)" stroke-width="1" opacity="0.5254901960784314" d="M 354.5 19 L 360 21.5 L 358.5 22 L 354.5 20 L 354.5 19 Z " /><path fill="rgb(225,79,95)" stroke="rgb(225,79,95)" stroke-width="1" opacity="0.5254901960784314" d="M 149.5 22 L 151 22.5 Q 99.9 45.9 65 85.5 Q 39.2 113.7 22.5 151 L 22 149.5 Q 46.1 98.1 86.5 63 Q 114 38.5 149.5 22 Z " /><path fill="rgb(225,79,95)" stroke="rgb(225,79,95)" stroke-width="1" opacity="0.5254901960784314" d="M 361.5 22 Q 413.9 45.6 449 86.5 Q 473.3 113.2 489 148.5 L 488 148.5 Q 464.8 98.2 425.5 64 L 390.5 38 L 361.5 23 L 361.5 22 Z " /><path fill="rgb(225,79,95)" stroke="rgb(225,79,95)" stroke-width="1" opacity="0.5254901960784314" d="M 489.5 150 Q 497.7 164.8 502 183.5 L 501 183.5 L 496 166.5 L 489 151.5 L 489.5 150 Z " /><path fill="rgb(225,79,95)" stroke="rgb(225,79,95)" stroke-width="1" opacity="0.5254901960784314" d="M 21.5 152 L 22 153.5 L 19.5 158 L 19 156.5 L 21.5 152 Z " /><path fill="rgb(225,79,95)" stroke="rgb(225,79,95)" stroke-width="1" opacity="0.5254901960784314" d="M 18.5 159 L 19 160.5 L 17.5 163 L 17 161.5 L 18.5 159 Z " /><path fill="rgb(225,79,95)" stroke="rgb(225,79,95)" stroke-width="1" opacity="0.5254901960784314" d="M 16.5 164 L 17 165.5 L 13.5 174 L 13 172.5 L 16.5 164 Z " /><path fill="rgb(225,79,95)" stroke="rgb(225,79,95)" stroke-width="1" opacity="0.5254901960784314" d="M 12.5 175 L 13 177.5 L 10.5 184 L 10 181.5 L 12.5 175 Z " /><path fill="rgb(225,79,95)" stroke="rgb(225,79,95)" stroke-width="1" opacity="0.5254901960784314" d="M 9.5 185 L 10 187.5 L 8.5 191 L 8 188.5 L 9.5 185 Z " /><path fill="rgb(225,79,95)" stroke="rgb(225,79,95)" stroke-width="1" opacity="0.5254901960784314" d="M 502.5 185 L 504 190.5 L 503 190.5 L 502.5 185 Z " /><path fill="rgb(225,79,95)" stroke="rgb(225,79,95)" stroke-width="1" opacity="0.5254901960784314" d="M 7.5 192 L 8 194.5 L 7 194.5 L 7.5 192 Z " /><path fill="rgb(225,79,95)" stroke="rgb(225,79,95)" stroke-width="1" opacity="0.5254901960784314" d="M 504.5 192 L 505 194.5 L 504 194.5 L 504.5 192 Z " /><path fill="rgb(225,79,95)" stroke="rgb(225,79,95)" stroke-width="1" opacity="0.5254901960784314" d="M 6.5 196 L 7 199.5 L 5.5 204 L 5 200.5 L 6.5 196 Z " /><path fill="rgb(225,79,95)" stroke="rgb(225,79,95)" stroke-width="1" opacity="0.5254901960784314" d="M 505.5 196 L 507 203.5 L 506 203.5 L 505.5 196 Z " /><path fill="rgb(225,79,95)" stroke="rgb(225,79,95)" stroke-width="1" opacity="0.5254901960784314" d="M 4.5 205 L 5 208.5 L 4 208.5 L 4.5 205 Z " /><path fill="rgb(225,79,95)" stroke="rgb(225,79,95)" stroke-width="1" opacity="0.5254901960784314" d="M 507.5 205 L 508 208.5 L 507 208.5 L 507.5 205 Z " /><path fill="rgb(225,79,95)" stroke="rgb(225,79,95)" stroke-width="1" opacity="0.5254901960784314" d="M 3.5 210 L 4 214.5 L 3 214.5 L 3.5 210 Z " /><path fill="rgb(225,79,95)" stroke="rgb(225,79,95)" stroke-width="1" opacity="0.5254901960784314" d="M 508.5 210 L 509 214.5 L 508 214.5 L 508.5 210 Z " /><path fill="rgb(225,79,95)" stroke="rgb(225,79,95)" stroke-width="1" opacity="0.5254901960784314" d="M 2.5 216 L 3 221.5 L 2 221.5 L 2.5 216 Z " /><path fill="rgb(225,79,95)" stroke="rgb(225,79,95)" stroke-width="1" opacity="0.5254901960784314" d="M 509.5 217 L 510 221.5 L 509 221.5 L 509.5 217 Z " /><path fill="rgb(225,79,95)" stroke="rgb(225,79,95)" stroke-width="1" opacity="0.5254901960784314" d="M 1.5 224 L 2 230.5 L 1 230.5 L 1.5 224 Z " /><path fill="rgb(225,79,95)" stroke="rgb(225,79,95)" stroke-width="1" opacity="0.5254901960784314" d="M 510.5 224 L 511 230.5 L 510 230.5 L 510.5 224 Z " /><path fill="rgb(225,79,95)" stroke="rgb(225,79,95)" stroke-width="1" opacity="0.5254901960784314" d="M 0.5 233 L 1 244.5 L 0 244.5 L 0.5 233 Z " /><path fill="rgb(225,79,95)" stroke="rgb(225,79,95)" stroke-width="1" opacity="0.5254901960784314" d="M 511.5 233 L 512 245.5 L 511 245.5 L 511.5 233 Z " /><path fill="rgb(225,79,95)" stroke="rgb(225,79,95)" stroke-width="1" opacity="0.5254901960784314" d="M 511.5 266 L 512 278.5 L 511 278.5 L 511.5 266 Z " /><path fill="rgb(225,79,95)" stroke="rgb(225,79,95)" stroke-width="1" opacity="0.5254901960784314" d="M 0.5 267 L 1 278.5 L 0 278.5 L 0.5 267 Z " /><path fill="rgb(225,79,95)" stroke="rgb(225,79,95)" stroke-width="1" opacity="0.5254901960784314" d="M 1.5 281 L 2 287.5 L 1 287.5 L 1.5 281 Z " /><path fill="rgb(225,79,95)" stroke="rgb(225,79,95)" stroke-width="1" opacity="0.5254901960784314" d="M 510.5 281 L 511 287.5 L 510 287.5 L 510.5 281 Z " /><path fill="rgb(225,79,95)" stroke="rgb(225,79,95)" stroke-width="1" opacity="0.5254901960784314" d="M 2.5 290 L 3 295.5 L 2 295.5 L 2.5 290 Z " /><path fill="rgb(225,79,95)" stroke="rgb(225,79,95)" stroke-width="1" opacity="0.5254901960784314" d="M 509.5 290 L 510 294.5 L 509 294.5 L 509.5 290 Z " /><path fill="rgb(225,79,95)" stroke="rgb(225,79,95)" stroke-width="1" opacity="0.5254901960784314" d="M 3.5 297 L 4 301.5 L 3 301.5 L 3.5 297 Z " /><path fill="rgb(225,79,95)" stroke="rgb(225,79,95)" stroke-width="1" opacity="0.5254901960784314" d="M 508.5 297 L 509 301.5 L 508 301.5 L 508.5 297 Z " /><path fill="rgb(225,79,95)" stroke="rgb(225,79,95)" stroke-width="1" opacity="0.5254901960784314" d="M 4.5 303 L 5 306.5 L 4 306.5 L 4.5 303 Z " /><path fill="rgb(225,79,95)" stroke="rgb(225,79,95)" stroke-width="1" opacity="0.5254901960784314" d="M 507.5 303 L 508 306.5 L 507 306.5 L 507.5 303 Z " /><path fill="rgb(225,79,95)" stroke="rgb(225,79,95)" stroke-width="1" opacity="0.5254901960784314" d="M 5.5 308 L 7 315.5 L 6 315.5 L 5.5 308 Z " /><path fill="rgb(225,79,95)" stroke="rgb(225,79,95)" stroke-width="1" opacity="0.5254901960784314" d="M 506.5 308 L 507 311.5 L 505.5 316 L 505 312.5 L 506.5 308 Z " /><path fill="rgb(225,79,95)" stroke="rgb(225,79,95)" stroke-width="1" opacity="0.5254901960784314" d="M 7.5 317 L 8 319.5 L 7 319.5 L 7.5 317 Z " /><path fill="rgb(225,79,95)" stroke="rgb(225,79,95)" stroke-width="1" opacity="0.5254901960784314" d="M 504.5 317 L 505 319.5 L 504 319.5 L 504.5 317 Z " /><path fill="rgb(225,79,95)" stroke="rgb(225,79,95)" stroke-width="1" opacity="0.5254901960784314" d="M 8.5 321 L 10 326.5 L 9 326.5 L 8.5 321 Z " /><path fill="rgb(225,79,95)" stroke="rgb(225,79,95)" stroke-width="1" opacity="0.5254901960784314" d="M 503.5 321 L 504 323.5 L 502.5 327 L 502 324.5 L 503.5 321 Z " /><path fill="rgb(225,79,95)" stroke="rgb(225,79,95)" stroke-width="1" opacity="0.5254901960784314" d="M 10.5 328 L 17 347.5 L 16 347.5 L 10 330.5 L 10.5 328 Z " /><path fill="rgb(225,79,95)" stroke="rgb(225,79,95)" stroke-width="1" opacity="0.5254901960784314" d="M 501.5 328 L 502 330.5 Q 493.1 361.1 477.5 385 L 478 383.5 Q 492.8 358.8 501.5 328 Z " /><path fill="rgb(225,79,95)" stroke="rgb(225,79,95)" stroke-width="1" opacity="0.5254901960784314" d="M 17.5 349 L 19 352.5 L 18 352.5 L 17.5 349 Z " /><path fill="rgb(225,79,95)" stroke="rgb(225,79,95)" stroke-width="1" opacity="0.5254901960784314" d="M 19.5 354 L 22 359.5 L 21 359.5 L 19.5 354 Z " /><path fill="rgb(225,79,95)" stroke="rgb(225,79,95)" stroke-width="1" opacity="0.5254901960784314" d="M 22.5 361 Q 45.9 412.1 85.5 447 Q 112.9 472.1 149 488.5 L 147.5 489 Q 97.5 465 63 425.5 L 37 390.5 L 22 362.5 L 22.5 361 Z " /><path fill="rgb(225,79,95)" stroke="rgb(225,79,95)" stroke-width="1" opacity="0.5254901960784314" d="M 476.5 386 L 476 387.5 Q 455.7 423.2 425.5 449 Q 398.8 473.3 363.5 489 L 363.5 488 Q 413.2 465.2 447 426.5 Q 463.6 408.1 476.5 386 Z " /><path fill="rgb(225,79,95)" stroke="rgb(225,79,95)" stroke-width="1" opacity="0.5254901960784314" d="M 150.5 489 Q 165.8 496.8 184 501.5 L 181.5 502 L 156.5 493 L 150.5 490 L 150.5 489 Z " /><path fill="rgb(225,79,95)" stroke="rgb(225,79,95)" stroke-width="1" opacity="0.5254901960784314" d="M 360.5 489 L 362 489.5 L 354.5 493 L 354.5 492 L 360.5 489 Z " /><path fill="rgb(225,79,95)" stroke="rgb(225,79,95)" stroke-width="1" opacity="0.5254901960784314" d="M 351.5 493 L 353 493.5 L 335.5 500 L 335.5 499 L 351.5 493 Z " /><path fill="rgb(225,79,95)" stroke="rgb(225,79,95)" stroke-width="1" opacity="0.5254901960784314" d="M 331.5 500 L 334 500.5 L 328.5 502 L 328.5 501 L 331.5 500 Z " /><path fill="rgb(225,79,95)" stroke="rgb(225,79,95)" stroke-width="1" opacity="0.5254901960784314" d="M 185.5 502 L 191 503.5 L 188.5 504 L 185.5 503 L 185.5 502 Z " /><path fill="rgb(225,79,95)" stroke="rgb(225,79,95)" stroke-width="1" opacity="0.5254901960784314" d="M 324.5 502 L 327 502.5 L 321.5 504 L 321.5 503 L 324.5 502 Z " /><path fill="rgb(225,79,95)" stroke="rgb(225,79,95)" stroke-width="1" opacity="0.5254901960784314" d="M 192.5 504 L 204 506.5 L 200.5 507 L 192.5 505 L 192.5 504 Z " /><path fill="rgb(225,79,95)" stroke="rgb(225,79,95)" stroke-width="1" opacity="0.5254901960784314" d="M 317.5 504 L 320 504.5 L 317.5 505 L 317.5 504 Z " /><path fill="rgb(225,79,95)" stroke="rgb(225,79,95)" stroke-width="1" opacity="0.5254901960784314" d="M 312.5 505 L 316 505.5 L 312.5 506 L 312.5 505 Z " /><path fill="rgb(225,79,95)" stroke="rgb(225,79,95)" stroke-width="1" opacity="0.5254901960784314" d="M 308.5 506 L 311 506.5 L 308.5 507 L 308.5 506 Z " /><path fill="rgb(225,79,95)" stroke="rgb(225,79,95)" stroke-width="1" opacity="0.5254901960784314" d="M 205.5 507 L 209 507.5 L 205.5 508 L 205.5 507 Z " /><path fill="rgb(225,79,95)" stroke="rgb(225,79,95)" stroke-width="1" opacity="0.5254901960784314" d="M 303.5 507 L 307 507.5 L 303.5 508 L 303.5 507 Z " /><path fill="rgb(225,79,95)" stroke="rgb(225,79,95)" stroke-width="1" opacity="0.5254901960784314" d="M 211.5 508 L 215 508.5 L 211.5 509 L 211.5 508 Z " /><path fill="rgb(225,79,95)" stroke="rgb(225,79,95)" stroke-width="1" opacity="0.5254901960784314" d="M 297.5 508 L 302 508.5 L 297.5 509 L 297.5 508 Z " /><path fill="rgb(225,79,95)" stroke="rgb(225,79,95)" stroke-width="1" opacity="0.5254901960784314" d="M 217.5 509 L 222 509.5 L 217.5 510 L 217.5 509 Z " /><path fill="rgb(225,79,95)" stroke="rgb(225,79,95)" stroke-width="1" opacity="0.5254901960784314" d="M 290.5 509 L 295 509.5 L 290.5 510 L 290.5 509 Z " /><path fill="rgb(225,79,95)" stroke="rgb(225,79,95)" stroke-width="1" opacity="0.5254901960784314" d="M 224.5 510 L 231 510.5 L 224.5 511 L 224.5 510 Z " /><path fill="rgb(225,79,95)" stroke="rgb(225,79,95)" stroke-width="1" opacity="0.5254901960784314" d="M 281.5 510 L 288 510.5 L 281.5 511 L 281.5 510 Z " /><path fill="rgb(225,79,95)" stroke="rgb(225,79,95)" stroke-width="1" opacity="0.5254901960784314" d="M 233.5 511 L 245 511.5 L 233.5 512 L 233.5 511 Z " /><path fill="rgb(225,79,95)" stroke="rgb(225,79,95)" stroke-width="1" opacity="0.5254901960784314" d="M 266.5 511 L 279 511.5 L 266.5 512 L 266.5 511 Z " /><path fill="rgb(224,79,95)" stroke="rgb(224,79,95)" stroke-width="1" opacity="1" d="M 245.5 0 L 266.5 0 L 267.5 1 L 280.5 1 L 281.5 2 L 302.5 4 L 334.5 12 L 353.5 19 Q 409.6 42.9 447 85.5 Q 478 119.5 496 166.5 L 504 191.5 L 509 215.5 L 510 230.5 L 511 231.5 L 511 245.5 L 512 246.5 L 512 265.5 L 511 266.5 L 510 289.5 L 505 316.5 Q 498.7 341.2 489 362.5 Q 465.5 412.5 426.5 447 Q 407.8 463.8 385.5 477 L 362.5 489 L 334.5 500 L 316.5 505 L 289.5 510 L 266.5 511 L 265.5 512 L 245.5 512 L 244.5 511 L 231.5 511 L 230.5 510 L 215.5 509 L 191.5 504 L 149.5 489 Q 99.5 465.5 65 426.5 Q 35 393.5 17 348.5 L 8 320.5 L 3 296.5 L 2 281.5 L 1 280.5 L 1 267.5 L 0 266.5 L 0 245.5 L 1 244.5 L 2 222.5 L 7 195.5 L 13 174.5 L 22 151.5 Q 45.7 100.2 85.5 65 Q 118.5 35 163.5 17 L 204.5 5 L 221.5 3 L 222.5 2 L 230.5 2 L 231.5 1 L 244.5 1 L 245.5 0 Z M 165 103 L 155 105 L 142 113 Q 134 120 131 132 L 131 359 Q 133 368 138 374 L 148 382 L 219 423 L 236 429 L 247 428 L 261 421 Q 269 414 273 403 L 274 398 L 274 377 L 330 377 Q 341 375 348 369 Q 357 362 360 349 L 360 299 L 358 295 L 351 290 Q 345 289 343 292 L 337 299 L 337 344 L 334 350 L 329 353 L 274 353 L 274 194 Q 272 183 267 177 L 257 167 L 188 128 L 188 127 L 328 127 L 331 128 Q 336 130 337 137 L 337 187 L 338 190 L 345 195 Q 351 196 355 194 L 360 188 L 360 132 Q 357 121 351 115 Q 345 108 337 105 L 327 103 L 165 103 Z M 374 196 L 370 198 L 365 206 Q 364 213 368 216 L 380 228 L 295 228 L 290 230 L 284 238 L 284 244 L 287 249 L 294 252 L 381 253 L 366 268 L 365 271 Q 364 277 367 280 Q 370 284 377 285 L 385 282 L 419 248 L 421 244 Q 422 235 418 232 L 386 199 Q 382 195 374 196 Z " /><path fill="rgb(0,0,0)" stroke="rgb(0,0,0)" stroke-width="1" opacity="0" d="M 0 0 L 233 0.5 L 205.5 4 L 181.5 10 Q 155.5 18 133.5 30 Q 92.6 52.6 63 86.5 Q 36.1 116.6 19 156.5 Q 10.4 176.9 5 200.5 L 0.5 233 L 0 0 Z " /><path fill="rgb(0,0,0)" stroke="rgb(0,0,0)" stroke-width="1" opacity="0" d="M 279.5 0 L 512 0 L 512 232.5 L 511 232.5 L 509 210.5 L 502 181.5 Q 494 155.5 482 133.5 Q 459.4 92.6 425.5 63 Q 398 38.5 362.5 22 L 323.5 8 L 295.5 2 L 279.5 1 L 279.5 0 Z " /><path fill="rgb(0,0,0)" stroke="rgb(0,0,0)" stroke-width="1" opacity="0" d="M 0.5 279 L 3 301.5 L 10 330.5 Q 18 356.5 30 378.5 Q 52.6 419.4 86.5 449 Q 116.6 475.9 156.5 493 Q 176.9 501.6 200.5 507 L 233 511.5 L 0 512 L 0.5 279 Z " /><path fill="rgb(0,0,0)" stroke="rgb(0,0,0)" stroke-width="1" opacity="0" d="M 511.5 279 L 512 512 L 279 511.5 L 301.5 509 L 330.5 502 Q 356.5 494 378.5 482 Q 419.4 459.4 449 425.5 Q 475.9 395.4 493 355.5 Q 501.6 335.1 507 311.5 L 511.5 279 Z " /><path fill="rgb(247,209,213)" stroke="rgb(247,209,213)" stroke-width="1" opacity="1" d="M 164.5 103 L 327 103.5 L 164.5 104 L 164.5 103 Z " /><path fill="rgb(247,209,213)" stroke="rgb(247,209,213)" stroke-width="1" opacity="1" d="M 157.5 104 L 160 104.5 L 157.5 105 L 157.5 104 Z " /><path fill="rgb(247,209,213)" stroke="rgb(247,209,213)" stroke-width="1" opacity="1" d="M 331.5 104 L 334 104.5 L 331.5 105 L 331.5 104 Z " /><path fill="rgb(247,209,213)" stroke="rgb(247,209,213)" stroke-width="1" opacity="1" d="M 146.5 109 L 145.5 111 L 146.5 109 Z " /><path fill="rgb(247,209,213)" stroke="rgb(247,209,213)" stroke-width="1" opacity="1" d="M 344.5 109 L 345.5 111 L 344.5 109 Z " /><path fill="rgb(247,209,213)" stroke="rgb(247,209,213)" stroke-width="1" opacity="1" d="M 348.5 112 L 350.5 115 L 348.5 112 Z " /><path fill="rgb(247,209,213)" stroke="rgb(247,209,213)" stroke-width="1" opacity="1" d="M 141.5 113 L 140.5 115 L 141.5 113 Z " /><path fill="rgb(247,209,213)" stroke="rgb(247,209,213)" stroke-width="1" opacity="1" d="M 137.5 118 L 136.5 120 L 137.5 118 Z " /><path fill="rgb(247,209,213)" stroke="rgb(247,209,213)" stroke-width="1" opacity="1" d="M 353.5 118 L 354.5 120 L 353.5 118 Z " /><path fill="rgb(247,209,213)" stroke="rgb(247,209,213)" stroke-width="1" opacity="1" d="M 186 126 L 326 126.5 L 187.5 127 L 186.5 128 L 186 126 Z " /><path fill="rgb(247,209,213)" stroke="rgb(247,209,213)" stroke-width="1" opacity="1" d="M 331.5 128 L 335.5 133 L 331.5 128 Z " /><path fill="rgb(247,209,213)" stroke="rgb(247,209,213)" stroke-width="1" opacity="1" d="M 192.5 130 L 193.5 132 L 192.5 130 Z " /><path fill="rgb(247,209,213)" stroke="rgb(247,209,213)" stroke-width="1" opacity="1" d="M 131.5 131 L 132 133.5 L 131 133.5 L 131.5 131 Z " /><path fill="rgb(247,209,213)" stroke="rgb(247,209,213)" stroke-width="1" opacity="1" d="M 359.5 131 L 360 133.5 L 359 133.5 L 359.5 131 Z " /><path fill="rgb(247,209,213)" stroke="rgb(247,209,213)" stroke-width="1" opacity="1" d="M 204.5 137 L 205.5 139 L 204.5 137 Z " /><path fill="rgb(247,209,213)" stroke="rgb(247,209,213)" stroke-width="1" opacity="1" d="M 211.5 141 L 212.5 143 L 211.5 141 Z " /><path fill="rgb(247,209,213)" stroke="rgb(247,209,213)" stroke-width="1" opacity="1" d="M 218.5 145 L 219.5 147 L 218.5 145 Z " /><path fill="rgb(247,209,213)" stroke="rgb(247,209,213)" stroke-width="1" opacity="1" d="M 230.5 152 L 231.5 154 L 230.5 152 Z " /><path fill="rgb(247,209,213)" stroke="rgb(247,209,213)" stroke-width="1" opacity="1" d="M 237.5 156 L 238.5 158 L 237.5 156 Z " /><path fill="rgb(247,209,213)" stroke="rgb(247,209,213)" stroke-width="1" opacity="1" d="M 249.5 163 L 250.5 165 L 249.5 163 Z " /><path fill="rgb(247,209,213)" stroke="rgb(247,209,213)" stroke-width="1" opacity="1" d="M 256.5 167 L 257.5 169 L 256.5 167 Z " /><path fill="rgb(247,209,213)" stroke="rgb(247,209,213)" stroke-width="1" opacity="1" d="M 259.5 169 L 266.5 177 L 259.5 169 Z " /><path fill="rgb(247,209,213)" stroke="rgb(247,209,213)" stroke-width="1" opacity="1" d="M 338.5 189 L 339.5 191 L 338.5 189 Z " /><path fill="rgb(247,209,213)" stroke="rgb(247,209,213)" stroke-width="1" opacity="1" d="M 341.5 192 L 342.5 194 L 341.5 192 Z " /><path fill="rgb(247,209,213)" stroke="rgb(247,209,213)" stroke-width="1" opacity="1" d="M 273.5 193 L 274 353 L 328 353.5 L 273 354 L 273.5 193 Z " /><path fill="rgb(247,209,213)" stroke="rgb(247,209,213)" stroke-width="1" opacity="1" d="M 369.5 198 L 368.5 200 L 369.5 198 Z " /><path fill="rgb(247,209,213)" stroke="rgb(247,209,213)" stroke-width="1" opacity="1" d="M 385.5 199 L 417.5 232 L 385.5 199 Z " /><path fill="rgb(247,209,213)" stroke="rgb(247,209,213)" stroke-width="1" opacity="1" d="M 365.5 205 L 366 209.5 L 365 209.5 L 365.5 205 Z " /><path fill="rgb(247,209,213)" stroke="rgb(247,209,213)" stroke-width="1" opacity="1" d="M 368.5 215 L 381 227.5 L 381 229 L 294 228.5 L 380 227.5 L 368.5 215 Z " /><path fill="rgb(247,209,213)" stroke="rgb(247,209,213)" stroke-width="1" opacity="1" d="M 286.5 233 L 285.5 235 L 286.5 233 Z " /><path fill="rgb(247,209,213)" stroke="rgb(247,209,213)" stroke-width="1" opacity="1" d="M 284.5 241 L 285 243.5 L 284 243.5 L 284.5 241 Z " /><path fill="rgb(247,209,213)" stroke="rgb(247,209,213)" stroke-width="1" opacity="1" d="M 418.5 247 L 384.5 282 L 418.5 247 Z " /><path fill="rgb(247,209,213)" stroke="rgb(247,209,213)" stroke-width="1" opacity="1" d="M 293.5 251 L 381 251.5 L 293.5 252 L 293.5 251 Z " /><path fill="rgb(247,209,213)" stroke="rgb(247,209,213)" stroke-width="1" opacity="1" d="M 367.5 266 L 366.5 268 L 367.5 266 Z " /><path fill="rgb(247,209,213)" stroke="rgb(247,209,213)" stroke-width="1" opacity="1" d="M 365.5 270 L 366 274.5 L 365 274.5 L 365.5 270 Z " /><path fill="rgb(247,209,213)" stroke="rgb(247,209,213)" stroke-width="1" opacity="1" d="M 367.5 279 L 370.5 283 L 367.5 279 Z " /><path fill="rgb(247,209,213)" stroke="rgb(247,209,213)" stroke-width="1" opacity="1" d="M 346.5 290 L 351 290.5 L 346.5 291 L 346.5 290 Z " /><path fill="rgb(247,209,213)" stroke="rgb(247,209,213)" stroke-width="1" opacity="1" d="M 356.5 293 L 357.5 295 L 356.5 293 Z " /><path fill="rgb(247,209,213)" stroke="rgb(247,209,213)" stroke-width="1" opacity="1" d="M 337.5 298 L 338 300.5 L 337 300.5 L 337.5 298 Z " /><path fill="rgb(247,209,213)" stroke="rgb(247,209,213)" stroke-width="1" opacity="1" d="M 359.5 346 L 360 348.5 L 359 348.5 L 359.5 346 Z " /><path fill="rgb(247,209,213)" stroke="rgb(247,209,213)" stroke-width="1" opacity="1" d="M 335.5 347 L 334.5 349 L 335.5 347 Z " /><path fill="rgb(247,209,213)" stroke="rgb(247,209,213)" stroke-width="1" opacity="1" d="M 354.5 360 L 353.5 362 L 354.5 360 Z " /><path fill="rgb(247,209,213)" stroke="rgb(247,209,213)" stroke-width="1" opacity="1" d="M 352.5 363 L 347.5 369 L 352.5 363 Z " /><path fill="rgb(247,209,213)" stroke="rgb(247,209,213)" stroke-width="1" opacity="1" d="M 138.5 373 L 144.5 380 L 138.5 373 Z " /><path fill="rgb(247,209,213)" stroke="rgb(247,209,213)" stroke-width="1" opacity="1" d="M 274.5 376 L 330 376.5 L 274 377 L 273.5 398 L 273 377.5 L 274.5 376 Z " /><path fill="rgb(247,209,213)" stroke="rgb(247,209,213)" stroke-width="1" opacity="1" d="M 146.5 380 L 147.5 382 L 146.5 380 Z " /><path fill="rgb(247,209,213)" stroke="rgb(247,209,213)" stroke-width="1" opacity="1" d="M 165.5 391 L 166.5 393 L 165.5 391 Z " /><path fill="rgb(247,209,213)" stroke="rgb(247,209,213)" stroke-width="1" opacity="1" d="M 191.5 406 L 192.5 408 L 191.5 406 Z " /><path fill="rgb(247,209,213)" stroke="rgb(247,209,213)" stroke-width="1" opacity="1" d="M 268.5 411 L 267.5 413 L 268.5 411 Z " /><path fill="rgb(247,209,213)" stroke="rgb(247,209,213)" stroke-width="1" opacity="1" d="M 203.5 413 L 204.5 415 L 203.5 413 Z " /><path fill="rgb(247,209,213)" stroke="rgb(247,209,213)" stroke-width="1" opacity="1" d="M 266.5 414 L 260.5 421 L 266.5 414 Z " /><path fill="rgb(247,209,213)" stroke="rgb(247,209,213)" stroke-width="1" opacity="1" d="M 210.5 417 L 211.5 419 L 210.5 417 Z " /><path fill="rgb(247,209,213)" stroke="rgb(247,209,213)" stroke-width="1" opacity="1" d="M 217.5 421 L 218.5 423 L 217.5 421 Z " /><path fill="rgb(247,209,213)" stroke="rgb(247,209,213)" stroke-width="1" opacity="1" d="M 235.5 428 L 241 428.5 L 235.5 429 L 235.5 428 Z " /><path fill="rgb(255,255,255)" stroke="rgb(255,255,255)" stroke-width="1" opacity="1" d="M 160.5 104 L 330.5 104 Q 345.3 107.3 353 117.5 Q 358.4 124.1 360 134.5 L 360 186.5 L 355.5 193 Q 352.5 196 345.5 195 L 340 192 L 337 184.5 L 337 135.5 L 331.5 128 L 325.5 126 L 186 126 Q 184.9 128.7 187.5 128 L 255.5 167 L 268 178.5 L 273 190.5 L 273 354 L 327.5 354 L 336 347.5 L 337 345.5 L 337 301.5 L 339 295.5 L 341.5 293 Q 344.8 289.8 352.5 291 L 358 295.5 L 360 299.5 L 360 345.5 Q 356.9 361.9 345.5 370 L 331.5 376 L 274.5 376 L 273 377.5 L 273 400.5 Q 269.1 414.6 258.5 422 L 244.5 428 L 232.5 428 L 219.5 423 L 153.5 385 Q 143.5 380 137 371.5 Q 132.5 365.5 131 356.5 L 131 134.5 Q 133.9 118.9 144.5 111 Q 150.9 105.9 160.5 104 Z " /><path fill="rgb(255,255,255)" stroke="rgb(255,255,255)" stroke-width="1" opacity="1" d="M 374.5 196 Q 380.6 195.4 383.5 198 L 419 233.5 Q 421.8 236.2 421 242.5 L 419 246.5 L 382.5 283 L 374.5 284 L 367 278.5 Q 364.7 275.3 366 268.5 L 381 252.5 L 381 251 L 291.5 251 L 286 246.5 L 284 239.5 L 285 235.5 L 288.5 231 L 292.5 229 L 381 229 L 381 227.5 L 367 213.5 Q 364.7 210.3 366 203.5 L 370.5 198 L 374.5 196 Z " /></svg>