<svg width="500" height="500" version="1.1" xmlns="http://www.w3.org/2000/svg" desc="Created with imagetracer.js version 1.2.6" ><path fill="rgb(229,200,200)" stroke="rgb(229,200,200)" stroke-width="1" opacity="1" d="M 218.5 175 L 286 242.5 L 286 244 L 261 243.5 L 285 242.5 L 218.5 175 Z " /><path fill="rgb(229,200,200)" stroke="rgb(229,200,200)" stroke-width="1" opacity="1" d="M 281.5 175 L 322 214.5 L 282.5 176 L 256 201.5 L 267.5 214 L 282.5 201 L 315.5 235 L 281.5 202 L 267.5 215 L 255 201.5 L 281.5 175 Z " /><path fill="rgb(229,200,200)" stroke="rgb(229,200,200)" stroke-width="1" opacity="1" d="M 209.5 183 L 151.5 243 L 175 243.5 L 150 244 L 150 242.5 L 209.5 183 Z " /><path fill="rgb(229,200,200)" stroke="rgb(229,200,200)" stroke-width="1" opacity="1" d="M 175.5 186 L 193 186.5 L 175.5 187 L 175.5 186 Z " /><path fill="rgb(229,200,200)" stroke="rgb(229,200,200)" stroke-width="1" opacity="1" d="M 218.5 201 L 259.5 243 L 218.5 201 Z " /><path fill="rgb(229,200,200)" stroke="rgb(229,200,200)" stroke-width="1" opacity="1" d="M 203.5 215 L 176.5 243 L 203.5 215 Z " /><path fill="rgb(229,200,200)" stroke="rgb(229,200,200)" stroke-width="1" opacity="1" d="M 210.5 221 L 211 226.5 L 210 226.5 L 210.5 221 Z " /><path fill="rgb(229,200,200)" stroke="rgb(229,200,200)" stroke-width="1" opacity="1" d="M 216.5 221 L 217 226.5 L 216 226.5 L 216.5 221 Z " /><path fill="rgb(229,200,200)" stroke="rgb(229,200,200)" stroke-width="1" opacity="1" d="M 210 230 L 217 230 L 217 235.5 Q 216 238 211.5 237 Q 208.5 235.4 210 230 Z M 211 231 Q 209 239 216 236 Q 219 229 211 231 Z " /><path fill="rgb(229,200,200)" stroke="rgb(229,200,200)" stroke-width="1" opacity="1" d="M 220.5 230 L 226 230.5 L 220.5 231 L 220.5 230 Z " /><path fill="rgb(229,200,200)" stroke="rgb(229,200,200)" stroke-width="1" opacity="1" d="M 220.5 236 L 226 236.5 L 220.5 237 L 220.5 236 Z " /><path fill="rgb(229,200,200)" stroke="rgb(229,200,200)" stroke-width="1" opacity="1" d="M 324.5 243 L 350 243.5 L 324.5 244 L 324.5 243 Z " /><path fill="rgb(229,200,200)" stroke="rgb(229,200,200)" stroke-width="1" opacity="1" d="M 245.5 253 L 246 302.5 L 245 302.5 L 245.5 253 Z " /><path fill="rgb(229,200,200)" stroke="rgb(229,200,200)" stroke-width="1" opacity="1" d="M 111.5 254 L 133 254.5 L 111.5 255 L 111.5 254 Z " /><path fill="rgb(229,200,200)" stroke="rgb(229,200,200)" stroke-width="1" opacity="1" d="M 264.5 254 L 267 254.5 L 264.5 255 L 264.5 254 Z " /><path fill="rgb(229,200,200)" stroke="rgb(229,200,200)" stroke-width="1" opacity="1" d="M 280.5 256 L 281.5 258 L 280.5 256 Z " /><path fill="rgb(229,200,200)" stroke="rgb(229,200,200)" stroke-width="1" opacity="1" d="M 258.5 257 L 256.5 260 L 258.5 257 Z " /><path fill="rgb(229,200,200)" stroke="rgb(229,200,200)" stroke-width="1" opacity="1" d="M 385.5 257 Q 388.8 258.9 387 265 L 398 265.5 L 386 266 L 385.5 258 L 378 264.5 L 385.5 257 Z " /><path fill="rgb(229,200,200)" stroke="rgb(229,200,200)" stroke-width="1" opacity="1" d="M 272.5 260 L 275 260.5 L 272.5 261 L 272.5 260 Z " /><path fill="rgb(229,200,200)" stroke="rgb(229,200,200)" stroke-width="1" opacity="1" d="M 144.5 261 L 145.5 263 L 144.5 261 Z " /><path fill="rgb(229,200,200)" stroke="rgb(229,200,200)" stroke-width="1" opacity="1" d="M 276.5 261 L 279.5 265 L 276.5 261 Z " /><path fill="rgb(229,200,200)" stroke="rgb(229,200,200)" stroke-width="1" opacity="1" d="M 262.5 262 L 261.5 264 L 262.5 262 Z " /><path fill="rgb(229,200,200)" stroke="rgb(229,200,200)" stroke-width="1" opacity="1" d="M 122.5 264 L 131 264.5 L 122 265 L 121.5 277 L 121 265.5 L 122.5 264 Z " /><path fill="rgb(229,200,200)" stroke="rgb(229,200,200)" stroke-width="1" opacity="1" d="M 167.5 264 L 171 264.5 L 167.5 265 L 167.5 264 Z " /><path fill="rgb(229,200,200)" stroke="rgb(229,200,200)" stroke-width="1" opacity="1" d="M 207.5 264 L 211 264.5 L 207.5 265 L 207.5 264 Z " /><path fill="rgb(229,200,200)" stroke="rgb(229,200,200)" stroke-width="1" opacity="1" d="M 286.5 264 L 287 269 L 280.5 269 L 280 267.5 L 281.5 268 Q 288 270 286.5 264 Z " /><path fill="rgb(229,200,200)" stroke="rgb(229,200,200)" stroke-width="1" opacity="1" d="M 222.5 265 Q 228.5 263.5 230 266.5 L 229.5 303 L 229 266 L 222.5 266 L 221.5 267 L 222.5 265 Z " /><path fill="rgb(229,200,200)" stroke="rgb(229,200,200)" stroke-width="1" opacity="1" d="M 260.5 265 L 261 269.5 L 260 269.5 L 260.5 265 Z " /><path fill="rgb(229,200,200)" stroke="rgb(229,200,200)" stroke-width="1" opacity="1" d="M 293.5 265 Q 297.3 264.3 298 266.5 L 297.5 268 L 297 266 Q 292.6 267 293.5 265 Z " /><path fill="rgb(229,200,200)" stroke="rgb(229,200,200)" stroke-width="1" opacity="1" d="M 320.5 266 L 323 267.5 L 321.5 267 L 320.5 266 Z " /><path fill="rgb(229,200,200)" stroke="rgb(229,200,200)" stroke-width="1" opacity="1" d="M 364.5 267 L 365.5 269 L 364.5 267 Z " /><path fill="rgb(229,200,200)" stroke="rgb(229,200,200)" stroke-width="1" opacity="1" d="M 147.5 268 L 148 273.5 L 147 273.5 L 147.5 268 Z " /><path fill="rgb(229,200,200)" stroke="rgb(229,200,200)" stroke-width="1" opacity="1" d="M 196.5 268 L 192.5 273 L 196.5 268 Z " /><path fill="rgb(229,200,200)" stroke="rgb(229,200,200)" stroke-width="1" opacity="1" d="M 301.5 268 L 300.5 270 L 301.5 268 Z " /><path fill="rgb(229,200,200)" stroke="rgb(229,200,200)" stroke-width="1" opacity="1" d="M 324.5 268 L 325.5 270 L 324.5 268 Z " /><path fill="rgb(229,200,200)" stroke="rgb(229,200,200)" stroke-width="1" opacity="1" d="M 136.5 269 L 137 271.5 L 136 271.5 L 136.5 269 Z " /><path fill="rgb(229,200,200)" stroke="rgb(229,200,200)" stroke-width="1" opacity="1" d="M 340.5 269 L 338.5 272 L 340.5 269 Z " /><path fill="rgb(229,200,200)" stroke="rgb(229,200,200)" stroke-width="1" opacity="1" d="M 327.5 271 L 328.5 273 L 327.5 271 Z " /><path fill="rgb(229,200,200)" stroke="rgb(229,200,200)" stroke-width="1" opacity="1" d="M 386.5 271 L 387 292.5 L 386 292.5 L 386.5 271 Z " /><path fill="rgb(229,200,200)" stroke="rgb(229,200,200)" stroke-width="1" opacity="1" d="M 184.5 272 L 185.5 274 L 184.5 272 Z " /><path fill="rgb(229,200,200)" stroke="rgb(229,200,200)" stroke-width="1" opacity="1" d="M 305.5 272 L 304.5 274 L 305.5 272 Z " /><path fill="rgb(229,200,200)" stroke="rgb(229,200,200)" stroke-width="1" opacity="1" d="M 319.5 272 L 320.5 274 L 319.5 272 Z " /><path fill="rgb(229,200,200)" stroke="rgb(229,200,200)" stroke-width="1" opacity="1" d="M 345.5 273 L 342.5 277 L 345.5 273 Z " /><path fill="rgb(229,200,200)" stroke="rgb(229,200,200)" stroke-width="1" opacity="1" d="M 362.5 273 L 364.5 276 L 362.5 273 Z " /><path fill="rgb(229,200,200)" stroke="rgb(229,200,200)" stroke-width="1" opacity="1" d="M 207.5 274 L 212 274.5 L 207.5 275 L 207.5 274 Z " /><path fill="rgb(229,200,200)" stroke="rgb(229,200,200)" stroke-width="1" opacity="1" d="M 214.5 275 L 215.5 277 L 214.5 275 Z " /><path fill="rgb(229,200,200)" stroke="rgb(229,200,200)" stroke-width="1" opacity="1" d="M 371.5 275 L 373 277.5 L 372 277.5 L 371.5 275 Z " /><path fill="rgb(229,200,200)" stroke="rgb(229,200,200)" stroke-width="1" opacity="1" d="M 162.5 276 L 161.5 278 L 162.5 276 Z " /><path fill="rgb(229,200,200)" stroke="rgb(229,200,200)" stroke-width="1" opacity="1" d="M 175.5 276 L 176.5 278 L 175.5 276 Z " /><path fill="rgb(229,200,200)" stroke="rgb(229,200,200)" stroke-width="1" opacity="1" d="M 301.5 276 L 300.5 278 L 301.5 276 Z " /><path fill="rgb(229,200,200)" stroke="rgb(229,200,200)" stroke-width="1" opacity="1" d="M 365.5 277 L 367 279.5 L 366 279.5 L 365.5 277 Z " /><path fill="rgb(229,200,200)" stroke="rgb(229,200,200)" stroke-width="1" opacity="1" d="M 283.5 279 L 286.5 283 L 283.5 279 Z " /><path fill="rgb(229,200,200)" stroke="rgb(229,200,200)" stroke-width="1" opacity="1" d="M 334.5 279 L 335 281.5 L 334 281.5 L 334.5 279 Z " /><path fill="rgb(229,200,200)" stroke="rgb(229,200,200)" stroke-width="1" opacity="1" d="M 373.5 280 L 374 282.5 L 373 282.5 L 373.5 280 Z " /><path fill="rgb(229,200,200)" stroke="rgb(229,200,200)" stroke-width="1" opacity="1" d="M 149.5 281 L 150 286.5 L 149 286.5 L 149.5 281 Z " /><path fill="rgb(229,200,200)" stroke="rgb(229,200,200)" stroke-width="1" opacity="1" d="M 340.5 281 L 341 287.5 L 340 287.5 L 340.5 281 Z " /><path fill="rgb(229,200,200)" stroke="rgb(229,200,200)" stroke-width="1" opacity="1" d="M 199.5 282 L 200 285.5 L 199 285.5 L 199.5 282 Z " /><path fill="rgb(229,200,200)" stroke="rgb(229,200,200)" stroke-width="1" opacity="1" d="M 367.5 282 L 368 286.5 L 367 286.5 L 367.5 282 Z " /><path fill="rgb(229,200,200)" stroke="rgb(229,200,200)" stroke-width="1" opacity="1" d="M 140.5 283 L 139.5 285 L 140.5 283 Z " /><path fill="rgb(229,200,200)" stroke="rgb(229,200,200)" stroke-width="1" opacity="1" d="M 188.5 283 L 189 285.5 L 188 285.5 L 188.5 283 Z " /><path fill="rgb(229,200,200)" stroke="rgb(229,200,200)" stroke-width="1" opacity="1" d="M 373.5 285 L 374 288.5 L 373 288.5 L 373.5 285 Z " /><path fill="rgb(229,200,200)" stroke="rgb(229,200,200)" stroke-width="1" opacity="1" d="M 121.5 287 L 122 302.5 L 121 302.5 L 121.5 287 Z " /><path fill="rgb(229,200,200)" stroke="rgb(229,200,200)" stroke-width="1" opacity="1" d="M 160 287 L 188 287.5 L 161.5 288 L 160.5 289 L 160 287 Z " /><path fill="rgb(229,200,200)" stroke="rgb(229,200,200)" stroke-width="1" opacity="1" d="M 281.5 287 L 282 291.5 L 281 291.5 L 281.5 287 Z " /><path fill="rgb(229,200,200)" stroke="rgb(229,200,200)" stroke-width="1" opacity="1" d="M 334.5 287 L 335 289.5 L 334 289.5 L 334.5 287 Z " /><path fill="rgb(229,200,200)" stroke="rgb(229,200,200)" stroke-width="1" opacity="1" d="M 177.5 290 L 186.5 290 L 188 291.5 L 186.5 291 L 177.5 291 L 177.5 290 Z " /><path fill="rgb(229,200,200)" stroke="rgb(229,200,200)" stroke-width="1" opacity="1" d="M 201.5 290 L 203.5 293 L 201.5 290 Z " /><path fill="rgb(229,200,200)" stroke="rgb(229,200,200)" stroke-width="1" opacity="1" d="M 217.5 290 L 215.5 293 L 217.5 290 Z " /><path fill="rgb(229,200,200)" stroke="rgb(229,200,200)" stroke-width="1" opacity="1" d="M 380.5 291 L 381 293.5 L 380 293.5 L 380.5 291 Z " /><path fill="rgb(229,200,200)" stroke="rgb(229,200,200)" stroke-width="1" opacity="1" d="M 301.5 292 L 304.5 296 L 301.5 292 Z " /><path fill="rgb(229,200,200)" stroke="rgb(229,200,200)" stroke-width="1" opacity="1" d="M 323.5 292 L 320.5 296 L 323.5 292 Z " /><path fill="rgb(229,200,200)" stroke="rgb(229,200,200)" stroke-width="1" opacity="1" d="M 280.5 293 L 278.5 296 L 280.5 293 Z " /><path fill="rgb(229,200,200)" stroke="rgb(229,200,200)" stroke-width="1" opacity="1" d="M 343.5 293 L 345.5 296 L 343.5 293 Z " /><path fill="rgb(229,200,200)" stroke="rgb(229,200,200)" stroke-width="1" opacity="1" d="M 364.5 293 L 363.5 295 L 364.5 293 Z " /><path fill="rgb(229,200,200)" stroke="rgb(229,200,200)" stroke-width="1" opacity="1" d="M 336.5 294 L 337.5 296 L 336.5 294 Z " /><path fill="rgb(229,200,200)" stroke="rgb(229,200,200)" stroke-width="1" opacity="1" d="M 387.5 294 L 388.5 296 L 387.5 294 Z " /><path fill="rgb(229,200,200)" stroke="rgb(229,200,200)" stroke-width="1" opacity="1" d="M 152.5 295 L 153.5 297 L 152.5 295 Z " /><path fill="rgb(229,200,200)" stroke="rgb(229,200,200)" stroke-width="1" opacity="1" d="M 185.5 295 L 184.5 297 L 185.5 295 Z " /><path fill="rgb(229,200,200)" stroke="rgb(229,200,200)" stroke-width="1" opacity="1" d="M 254.5 295 L 255.5 297 L 254.5 295 Z " /><path fill="rgb(229,200,200)" stroke="rgb(229,200,200)" stroke-width="1" opacity="1" d="M 370.5 295 L 369.5 297 L 370.5 295 Z " /><path fill="rgb(229,200,200)" stroke="rgb(229,200,200)" stroke-width="1" opacity="1" d="M 328.5 296 L 324.5 301 L 328.5 296 Z " /><path fill="rgb(229,200,200)" stroke="rgb(229,200,200)" stroke-width="1" opacity="1" d="M 193.5 297 L 195.5 300 L 193.5 297 Z " /><path fill="rgb(229,200,200)" stroke="rgb(229,200,200)" stroke-width="1" opacity="1" d="M 268.5 297 L 274 297.5 L 268.5 298 L 268.5 297 Z " /><path fill="rgb(229,200,200)" stroke="rgb(229,200,200)" stroke-width="1" opacity="1" d="M 285.5 297 L 282.5 301 L 285.5 297 Z " /><path fill="rgb(229,200,200)" stroke="rgb(229,200,200)" stroke-width="1" opacity="1" d="M 392.5 297 Q 397.8 295.8 399 298.5 L 398.5 303 L 398 298 L 392.5 298 L 392.5 297 Z " /><path fill="rgb(229,200,200)" stroke="rgb(229,200,200)" stroke-width="1" opacity="1" d="M 299.5 298 L 301.5 301 L 299.5 298 Z " /><path fill="rgb(229,200,200)" stroke="rgb(229,200,200)" stroke-width="1" opacity="1" d="M 382.5 298 L 384.5 301 L 382.5 298 Z " /><path fill="rgb(229,200,200)" stroke="rgb(229,200,200)" stroke-width="1" opacity="1" d="M 366.5 299 L 365.5 301 L 366.5 299 Z " /><path fill="rgb(229,200,200)" stroke="rgb(229,200,200)" stroke-width="1" opacity="1" d="M 259.5 300 L 260.5 302 L 259.5 300 Z " /><path fill="rgb(229,200,200)" stroke="rgb(229,200,200)" stroke-width="1" opacity="1" d="M 266.5 303 L 270 303.5 L 266.5 304 L 266.5 303 Z " /><path fill="rgb(229,200,200)" stroke="rgb(229,200,200)" stroke-width="1" opacity="1" d="M 272.5 303 L 276 303.5 L 272.5 304 L 272.5 303 Z " /><path fill="rgb(229,200,200)" stroke="rgb(229,200,200)" stroke-width="1" opacity="1" d="M 315.5 303 L 318 303.5 L 315.5 304 L 315.5 303 Z " /><path fill="rgb(229,200,200)" stroke="rgb(229,200,200)" stroke-width="1" opacity="1" d="M 293.5 316 L 299 316.5 L 293.5 317 L 293.5 316 Z " /><path fill="rgb(255,255,255)" stroke="rgb(255,255,255)" stroke-width="1" opacity="1" d="M 0 0 L 500 0 L 500 500 L 0 500 L 0 0 Z M 218 175 L 150 243 L 150 244 L 175 244 L 177 243 L 218 201 L 262 244 L 286 244 L 286 243 L 218 175 Z M 282 175 L 255 202 L 268 215 L 282 202 L 325 244 L 350 244 L 322 215 L 282 175 Z M 175 186 L 175 208 L 193 191 Q 193 186 193 186 L 175 186 Z M 210 221 L 210 227 L 217 227 L 217 221 L 210 221 Z M 220 221 L 220 227 L 226 227 L 226 221 L 220 221 Z M 210 230 Q 208 235 212 237 Q 216 238 217 236 L 217 230 L 210 230 Z M 220 230 L 220 237 L 226 237 L 226 230 L 220 230 Z M 235 252 L 235 303 L 246 303 L 246 303 L 246 254 L 245 252 L 235 252 Z M 111 254 L 111 303 L 122 303 L 122 287 L 128 287 L 136 302 L 138 303 L 149 303 L 139 286 L 143 283 L 148 274 L 148 269 L 146 263 Q 142 256 133 254 L 111 254 Z M 265 254 L 259 257 L 254 264 Q 253 270 255 274 L 264 280 L 279 284 Q 282 286 281 293 L 276 297 Q 267 298 263 295 L 260 292 L 260 288 L 253 288 L 254 296 Q 258 302 267 304 Q 277 305 283 301 L 288 294 Q 290 286 287 283 L 280 277 L 263 272 Q 260 271 261 265 L 269 260 Q 277 260 280 266 L 280 269 L 287 269 Q 288 263 285 261 Q 280 252 265 254 Z M 386 257 L 373 271 L 380 271 L 380 294 L 382 299 L 389 303 L 399 303 L 399 299 Q 397 295 391 297 L 387 294 L 387 271 L 398 271 L 398 265 L 387 265 Q 389 259 386 257 Z M 168 264 L 159 267 Q 151 272 149 282 L 150 292 L 152 296 Q 156 301 164 304 Q 175 306 181 301 Q 186 299 187 293 Q 189 291 187 290 L 178 290 L 171 295 Q 163 295 161 291 L 162 288 L 188 288 L 189 286 Q 189 293 193 298 L 204 304 Q 216 306 221 300 L 221 303 L 230 303 L 230 303 L 230 267 Q 229 264 223 265 L 221 269 L 211 264 Q 202 264 197 268 Q 190 273 189 283 L 186 274 Q 181 265 168 264 Z M 293 265 L 293 317 L 294 317 L 299 317 L 300 299 L 309 304 Q 319 305 325 301 Q 330 297 332 290 Q 334 278 329 273 Q 325 267 319 265 Q 304 263 300 270 Q 296 271 298 267 Q 297 264 293 265 Z M 349 265 L 341 269 L 334 280 L 334 290 L 339 299 L 350 304 Q 360 305 366 301 Q 372 297 374 289 L 373 277 L 369 270 L 360 265 L 349 265 Z " /><path fill="rgb(255,255,255)" stroke="rgb(255,255,255)" stroke-width="1" opacity="1" d="M 122 265 L 132.5 265 L 135 266 Q 136.6 268.1 136 273.5 L 133.5 276 L 122 277 L 122 265 Z " /><path fill="rgb(255,255,255)" stroke="rgb(255,255,255)" stroke-width="1" opacity="1" d="M 309.5 271 Q 319.6 269.9 323 275.5 L 326 282.5 L 326 286.5 Q 324.5 293 319.5 296 Q 316.6 298.6 310.5 298 Q 304 296.5 301 291.5 Q 298.3 288.2 299 281.5 L 303.5 274 L 309.5 271 Z " /><path fill="rgb(255,255,255)" stroke="rgb(255,255,255)" stroke-width="1" opacity="1" d="M 350.5 271 L 357.5 271 L 365 276.5 Q 368.3 280.2 367 288.5 L 361.5 296 Q 358.2 298.7 351.5 298 Q 345 296.5 342 291.5 Q 339.3 287.7 341 279.5 L 346.5 273 L 350.5 271 Z " /><path fill="rgb(255,255,255)" stroke="rgb(255,255,255)" stroke-width="1" opacity="1" d="M 165.5 274 Q 172.3 273.1 175 275 L 177 280 L 161.5 280 L 161 278.5 L 163 275 L 165.5 274 Z " /><path fill="rgb(255,255,255)" stroke="rgb(255,255,255)" stroke-width="1" opacity="1" d="M 205.5 275 L 213.5 275 L 217 277 L 219 280.5 L 219 287.5 L 214.5 293 L 206.5 294 L 201 289.5 L 200 280.5 L 203.5 276 L 205.5 275 Z " /><path fill="rgb(233,45,45)" stroke="rgb(233,45,45)" stroke-width="1" opacity="1" d="M 217.5 175 L 210.5 183 L 217.5 175 Z " /><path fill="rgb(233,45,45)" stroke="rgb(233,45,45)" stroke-width="1" opacity="1" d="M 192.5 190 L 176.5 207 L 192.5 190 Z " /><path fill="rgb(233,45,45)" stroke="rgb(233,45,45)" stroke-width="1" opacity="1" d="M 217.5 200 L 224 205.5 L 218.5 201 L 197.5 221 L 217.5 200 Z " /><path fill="rgb(233,45,45)" stroke="rgb(233,45,45)" stroke-width="1" opacity="1" d="M 235.5 252 L 245 252.5 L 235.5 253 L 235.5 252 Z " /><path fill="rgb(233,45,45)" stroke="rgb(233,45,45)" stroke-width="1" opacity="1" d="M 141.5 258 L 143.5 261 L 141.5 258 Z " /><path fill="rgb(233,45,45)" stroke="rgb(233,45,45)" stroke-width="1" opacity="1" d="M 134.5 265 L 135.5 267 L 134.5 265 Z " /><path fill="rgb(233,45,45)" stroke="rgb(233,45,45)" stroke-width="1" opacity="1" d="M 198.5 267 L 197.5 269 L 198.5 267 Z " /><path fill="rgb(233,45,45)" stroke="rgb(233,45,45)" stroke-width="1" opacity="1" d="M 157.5 268 L 153.5 273 L 157.5 268 Z " /><path fill="rgb(233,45,45)" stroke="rgb(233,45,45)" stroke-width="1" opacity="1" d="M 180.5 268 L 183.5 272 L 180.5 268 Z " /><path fill="rgb(233,45,45)" stroke="rgb(233,45,45)" stroke-width="1" opacity="1" d="M 136.5 272 L 137 273.5 L 134 275.5 L 136.5 272 Z " /><path fill="rgb(233,45,45)" stroke="rgb(233,45,45)" stroke-width="1" opacity="1" d="M 175.5 275 L 176.5 277 L 175.5 275 Z " /><path fill="rgb(233,45,45)" stroke="rgb(233,45,45)" stroke-width="1" opacity="1" d="M 203.5 275 L 201.5 278 L 203.5 275 Z " /><path fill="rgb(233,45,45)" stroke="rgb(233,45,45)" stroke-width="1" opacity="1" d="M 216.5 276 L 217.5 278 L 216.5 276 Z " /><path fill="rgb(233,45,45)" stroke="rgb(233,45,45)" stroke-width="1" opacity="1" d="M 144.5 279 L 141.5 283 L 144.5 279 Z " /><path fill="rgb(233,45,45)" stroke="rgb(233,45,45)" stroke-width="1" opacity="1" d="M 160.5 280 L 178 280.5 L 160.5 281 L 160.5 280 Z " /><path fill="rgb(233,45,45)" stroke="rgb(233,45,45)" stroke-width="1" opacity="1" d="M 189.5 280 L 190 287.5 L 189 287.5 L 189.5 280 Z " /><path fill="rgb(233,45,45)" stroke="rgb(233,45,45)" stroke-width="1" opacity="1" d="M 219.5 285 L 220 287.5 L 219 287.5 L 219.5 285 Z " /><path fill="rgb(233,45,45)" stroke="rgb(233,45,45)" stroke-width="1" opacity="1" d="M 121.5 286 L 129 286.5 L 121.5 287 L 121.5 286 Z " /><path fill="rgb(233,45,45)" stroke="rgb(233,45,45)" stroke-width="1" opacity="1" d="M 160.5 289 L 162 291.5 L 160 290.5 L 160.5 289 Z " /><path fill="rgb(233,45,45)" stroke="rgb(233,45,45)" stroke-width="1" opacity="1" d="M 210.5 294 L 213 294.5 L 210.5 295 L 210.5 294 Z " /><path fill="rgb(233,45,45)" stroke="rgb(233,45,45)" stroke-width="1" opacity="1" d="M 192.5 295 L 193.5 297 L 192.5 295 Z " /><path fill="rgb(233,45,45)" stroke="rgb(233,45,45)" stroke-width="1" opacity="1" d="M 154.5 297 L 156.5 300 L 154.5 297 Z " /><path fill="rgb(233,45,45)" stroke="rgb(233,45,45)" stroke-width="1" opacity="1" d="M 183.5 297 L 181.5 300 L 183.5 297 Z " /><path fill="rgb(233,45,45)" stroke="rgb(233,45,45)" stroke-width="1" opacity="1" d="M 196.5 299 L 197.5 301 L 196.5 299 Z " /><path fill="rgb(233,45,45)" stroke="rgb(233,45,45)" stroke-width="1" opacity="1" d="M 220.5 299 L 219.5 301 L 220.5 299 Z " /><path fill="rgb(233,45,45)" stroke="rgb(233,45,45)" stroke-width="1" opacity="1" d="M 164.5 303 L 167 303.5 L 164.5 304 L 164.5 303 Z " /><path fill="rgb(233,45,45)" stroke="rgb(233,45,45)" stroke-width="1" opacity="1" d="M 204.5 303 L 207 303.5 L 204.5 304 L 204.5 303 Z " /><path fill="rgb(42,42,42)" stroke="rgb(42,42,42)" stroke-width="1" opacity="1" d="M 281.5 176 L 349 242.5 L 323.5 243 L 282.5 201 L 267.5 214 L 256 201.5 L 281.5 176 Z " /><path fill="rgb(42,42,42)" stroke="rgb(42,42,42)" stroke-width="1" opacity="1" d="M 211 221 L 216 221 L 216 227 L 211 227 L 211 221 Z " /><path fill="rgb(42,42,42)" stroke="rgb(42,42,42)" stroke-width="1" opacity="1" d="M 220 221 Q 224.6 219.8 226 222.5 L 226 227 L 220 227 L 220 221 Z " /><path fill="rgb(42,42,42)" stroke="rgb(42,42,42)" stroke-width="1" opacity="1" d="M 211 231 Q 218.5 228.5 216 236 Q 208.5 238.5 211 231 Z " /><path fill="rgb(42,42,42)" stroke="rgb(42,42,42)" stroke-width="1" opacity="1" d="M 220 231 L 226 231 L 226 236 L 220 236 L 220 231 Z " /><path fill="rgb(42,42,42)" stroke="rgb(42,42,42)" stroke-width="1" opacity="1" d="M 267.5 254 Q 279.3 253.3 284 259.5 Q 286.8 262.5 286 268 Q 281.4 269.3 280 266.5 Q 280.5 261.5 276.5 261 Q 273.3 258.7 266.5 260 L 261 263.5 L 260 269.5 L 265.5 274 Q 275.5 275 282.5 279 L 287 283.5 L 288 292.5 Q 286.6 298.6 281.5 301 L 277.5 303 L 270.5 304 L 261.5 302 L 256 297.5 L 254 294.5 L 253 288 L 258.5 288 L 259 289.5 L 263.5 296 Q 266.8 298.7 273.5 298 L 281 293.5 L 282 287.5 L 277.5 283 L 262.5 279 L 256 274.5 Q 253 271.5 254 264.5 L 259.5 257 L 267.5 254 Z " /><path fill="rgb(42,42,42)" stroke="rgb(42,42,42)" stroke-width="1" opacity="1" d="M 385.5 258 L 386 266 L 398 266 L 398 271 L 386 271 L 386 292.5 L 388.5 296 Q 391.8 299 398 298 L 398 303 L 390.5 303 Q 384.8 301.8 382 297.5 L 380 290.5 L 380 271 L 374.5 271 L 374 269.5 L 385.5 258 Z " /><path fill="rgb(42,42,42)" stroke="rgb(42,42,42)" stroke-width="1" opacity="1" d="M 309.5 265 L 316.5 265 L 327 270 L 332 280.5 L 332 288.5 Q 329.8 296.8 323.5 301 L 319.5 303 L 310.5 304 Q 303.1 302.9 299.5 298 L 299 316 L 293.5 316 L 293 315.5 L 293 266 L 297 266 L 297 267.5 L 298.5 271 Q 302.3 266.3 309.5 265 Z M 308 271 L 306 272 Q 300 274 299 281 Q 298 289 301 293 L 309 298 Q 317 299 321 296 L 326 289 Q 327 280 324 277 Q 321 269 308 271 Z " /><path fill="rgb(42,42,42)" stroke="rgb(42,42,42)" stroke-width="1" opacity="1" d="M 350.5 265 Q 365 264 370 272.5 L 373 278.5 L 374 284.5 Q 371.8 285.8 373 290.5 L 367.5 299 Q 362.3 304.3 351.5 304 Q 342.5 302.5 338 296.5 Q 334 291.5 334 282.5 L 337 273.5 L 342.5 268 L 350.5 265 Z M 350 271 L 346 273 Q 341 276 340 282 Q 339 290 343 294 L 350 298 Q 360 300 364 295 L 368 287 Q 369 279 365 276 Q 361 269 350 271 Z " /><path fill="rgb(229,0,0)" stroke="rgb(229,0,0)" stroke-width="1" opacity="1" d="M 217.5 176 L 285 242.5 L 260.5 243 L 218.5 200 L 197 220.5 L 175.5 243 L 151 242.5 L 217.5 176 Z " /><path fill="rgb(229,0,0)" stroke="rgb(229,0,0)" stroke-width="1" opacity="1" d="M 175 187 L 192.5 187 L 193 189.5 L 175 206.5 L 175 187 Z " /><path fill="rgb(229,0,0)" stroke="rgb(229,0,0)" stroke-width="1" opacity="1" d="M 235 253 L 244.5 253 L 245 253.5 L 245 303 L 235.5 303 L 235 302.5 L 235 253 Z " /><path fill="rgb(229,0,0)" stroke="rgb(229,0,0)" stroke-width="1" opacity="1" d="M 111 255 L 133.5 255 Q 141.6 256.4 145 262.5 Q 148 266.5 147 274.5 L 139.5 284 L 138 284.5 L 148 303 L 138.5 303 L 137 301.5 L 129 286 L 121 286 L 121 303 L 111 303 L 111 255 Z M 121 264 L 121 277 L 133 277 L 137 274 L 136 267 L 133 264 L 121 264 Z " /><path fill="rgb(229,0,0)" stroke="rgb(229,0,0)" stroke-width="1" opacity="1" d="M 165.5 265 Q 180.2 264.3 185 273.5 Q 188.8 278.6 188 287 L 160.5 287 L 160 290.5 Q 162.8 294.8 168.5 296 L 174.5 294 L 177.5 291 L 186.5 291 L 186 292.5 Q 184.6 298.6 179.5 301 Q 175.2 304.2 167.5 304 L 158.5 301 L 153 295.5 Q 148.8 290.7 150 280.5 Q 152.2 272.1 158.5 268 L 165.5 265 Z M 167 273 L 162 275 L 160 279 L 161 281 L 178 281 L 177 277 Q 174 272 167 273 Z " /><path fill="rgb(229,0,0)" stroke="rgb(229,0,0)" stroke-width="1" opacity="1" d="M 205.5 265 L 215.5 266 Q 217.4 269.6 222 269 L 222 266 L 229 266 L 229 302.5 L 228.5 303 L 222 303 L 220.5 299 Q 216.5 304 207.5 304 L 202.5 303 L 194 297.5 Q 187.8 292.2 190 278.5 L 196.5 269 L 205.5 265 Z M 206 274 L 204 275 L 199 282 L 200 290 L 207 295 L 215 294 L 220 288 Q 221 281 218 278 Q 215 273 206 274 Z " /></svg>